<svg width="32" height="33" viewBox="0 0 32 33" fill="none" xmlns="http://www.w3.org/2000/svg">
<g clip-path="url(#clip0)">
<path d="M11.8038 4.66506C12.1196 2.45119 14.0467 0.781494 16.286 0.781494C17.7261 0.781494 19.0938 1.47643 19.9442 2.64111C20.1179 2.87864 20.0659 3.21183 19.8284 3.38552C19.5917 3.55859 19.2577 3.50725 19.0843 3.26941C18.4334 2.37877 17.3875 1.84692 16.2861 1.84692C14.5735 1.84692 13.1002 3.12318 12.8586 4.81535C12.8205 5.08112 12.5925 5.27292 12.3317 5.27292C12.3069 5.27292 12.2813 5.27104 12.2559 5.26761C11.9647 5.22594 11.7623 4.95611 11.8038 4.66506Z" fill="white"/>
<path d="M4.11008 10.6283L5.70814 7.96477C5.80428 7.80418 5.97766 7.70617 6.16493 7.70617L7.69636 7.70617C7.99038 7.70617 8.22899 7.94479 8.22899 8.23881C8.22899 8.53283 7.99038 8.77144 7.69636 8.77144L6.46644 8.77144L5.50761 10.3695L27.0644 10.3695L26.1056 8.77145L25.5414 8.77145C25.2474 8.77145 25.0088 8.53283 25.0088 8.23881C25.0088 7.94479 25.2474 7.70618 25.5414 7.70618L26.4071 7.70618C26.5944 7.70618 26.7677 7.80418 26.8639 7.96477L28.4619 10.6283C28.5607 10.7931 28.5631 10.998 28.4686 11.1649C28.3742 11.3319 28.1973 11.4352 28.0051 11.4352L4.56687 11.4352C4.37476 11.4352 4.19795 11.3319 4.10337 11.1649C4.0088 10.998 4.0113 10.7927 4.11008 10.6283Z" fill="white"/>
<path d="M6.76531 5.71664C6.83991 5.59632 6.95898 5.51095 7.09663 5.4788L14.3583 3.7804C14.4958 3.74809 14.6406 3.77213 14.7608 3.84641C14.8806 3.92101 14.9661 4.04008 14.9983 4.17773L15.5459 6.51864C15.613 6.80501 15.4351 7.09153 15.1486 7.15833C14.8622 7.22543 14.5754 7.04753 14.5086 6.761L14.0822 4.93899L7.85805 6.39488L8.83608 10.5765C8.90319 10.8629 8.72528 11.1494 8.43875 11.2162C8.3977 11.2257 8.35697 11.2303 8.31671 11.2303C8.07482 11.2303 7.85586 11.0645 7.7989 10.819L6.69946 6.11881C6.667 5.98132 6.69072 5.83649 6.76531 5.71664Z" fill="white"/>
<path d="M16.0042 6.97585L16.4896 2.87067C16.5061 2.73037 16.5778 2.60225 16.6889 2.51485C16.8 2.42746 16.9403 2.38751 17.0812 2.40405L25.9907 3.45715C26.2827 3.49179 26.4915 3.75647 26.457 4.04877L25.6479 10.8956C25.6157 11.1667 25.3858 11.366 25.1194 11.366C25.0987 11.366 25.0773 11.3646 25.0561 11.3622C24.7642 11.3276 24.5554 11.0629 24.5898 10.7706L25.3365 4.45235L17.485 3.52441L17.0623 7.10054C17.0277 7.39268 16.7643 7.60024 16.4707 7.56716C16.1787 7.53283 15.9699 7.26799 16.0042 6.97585Z" fill="white"/>
<path d="M11.7914 10.7001L12.8487 6.30322C12.8818 6.16605 12.9681 6.04728 13.0884 5.97347C13.2087 5.90028 13.3531 5.87733 13.4912 5.91011L22.0725 7.97385C22.3586 8.04252 22.5346 8.33029 22.4659 8.61635L21.9375 10.814C21.8688 11.1004 21.5811 11.2766 21.2952 11.2074C21.0091 11.1388 20.8331 10.851 20.9017 10.5649L21.3058 8.88509L13.7602 7.07073L12.8275 10.9495C12.7689 11.1937 12.5505 11.3576 12.31 11.3576C12.2686 11.3576 12.2268 11.3527 12.1848 11.3426C11.8988 11.2737 11.7227 10.9861 11.7914 10.7001Z" fill="white"/>
<path d="M4.03442 10.8753C4.04909 10.5922 4.28287 10.37 4.56659 10.37L28.0049 10.37C28.2886 10.37 28.5224 10.5921 28.537 10.8753L29.6024 31.6501C29.6099 31.7959 29.5572 31.9385 29.4567 32.0443C29.356 32.15 29.2165 32.21 29.0704 32.21L3.50147 32.21C3.35555 32.21 3.21588 32.1501 3.11475 32.0443C3.01441 31.9385 2.96166 31.796 2.96899 31.6501L4.03442 10.8753ZM28.5099 31.1446L27.4991 11.4353L5.073 11.4353L4.0622 31.1446L28.5099 31.1446Z" fill="white"/>
<path d="M12.2908 12.5005C13.1721 12.5005 13.8889 13.2173 13.8889 14.0985C13.8889 14.9798 13.1721 15.6966 12.2908 15.6966C11.4095 15.6966 10.6927 14.9798 10.6927 14.0985C10.6927 13.2173 11.4095 12.5005 12.2908 12.5005ZM12.2908 14.6313C12.5847 14.6313 12.8234 14.3924 12.8234 14.0987C12.8234 13.805 12.5845 13.5661 12.2908 13.5661C11.9971 13.5661 11.7582 13.805 11.7582 14.0987C11.7582 14.3924 11.9971 14.6313 12.2908 14.6313Z" fill="white"/>
<path d="M20.2811 12.5005C21.1624 12.5005 21.8792 13.2173 21.8792 14.0985C21.8792 14.9798 21.1624 15.6966 20.2811 15.6966C19.3998 15.6966 18.683 14.9798 18.683 14.0985C18.683 13.2173 19.3998 12.5005 20.2811 12.5005ZM20.2811 14.6313C20.5748 14.6313 20.8137 14.3924 20.8137 14.0987C20.8137 13.805 20.5748 13.5661 20.2811 13.5661C19.9874 13.5661 19.7485 13.805 19.7485 14.0987C19.7485 14.3924 19.9874 14.6313 20.2811 14.6313Z" fill="white"/>
<path d="M12.2908 14.0986L12.3318 14.0986C12.6258 14.0986 12.8645 14.3372 12.8645 14.6313C12.8645 14.704 12.8501 14.7734 12.8234 14.8366L12.8234 17.561C12.8234 19.4701 14.3767 21.0235 16.2859 21.0235C18.1952 21.0235 19.7485 19.4702 19.7485 17.561L19.7485 14.6314C19.7485 14.3374 19.9871 14.0988 20.2811 14.0988C20.5751 14.0988 20.8137 14.3374 20.8137 14.6314L20.8137 17.5611C20.8137 20.0578 18.7826 22.0889 16.2859 22.0889C13.7893 22.0889 11.7581 20.0578 11.7581 17.5611L11.7581 14.6314C11.7581 14.3374 11.9968 14.0986 12.2908 14.0986Z" fill="white"/>
</g>
<defs>
<clipPath id="clip0">
<rect width="31.4286" height="31.4286" fill="white" transform="matrix(-1 -8.74228e-08 -8.74228e-08 1 32 0.781494)"/>
</clipPath>
</defs>
</svg>
