<svg width="32" height="33" viewBox="0 0 32 33" fill="none" xmlns="http://www.w3.org/2000/svg">
<path d="M16.8178 10.4206C16.8178 10.1849 16.7242 9.95879 16.5575 9.79209C16.3908 9.62539 16.1647 9.53174 15.9289 9.53174C15.6932 9.53174 15.4671 9.62539 15.3004 9.79209C15.1337 9.95879 15.04 10.1849 15.04 10.4206V18.1717L20.2845 21.7273C20.3811 21.8 20.4915 21.8522 20.609 21.8807C20.7264 21.9092 20.8485 21.9135 20.9677 21.8933C21.0868 21.873 21.2006 21.8287 21.3021 21.7629C21.4035 21.6972 21.4905 21.6115 21.5577 21.511C21.6249 21.4105 21.6709 21.2974 21.6929 21.1785C21.7148 21.0597 21.7123 20.9376 21.6855 20.8197C21.6587 20.7018 21.6081 20.5907 21.5369 20.493C21.4656 20.3954 21.3752 20.3133 21.2712 20.2517L16.8267 17.2384L16.8178 10.4206Z" fill="#21BF86"/>
<path d="M30.0178 14.5452H28.24C28.7475 17.2153 28.367 19.9781 27.1565 22.4115C25.946 24.8449 23.9721 26.8151 21.5365 28.0211C19.1008 29.2271 16.3373 29.6026 13.6682 29.0902C10.9991 28.5778 8.57108 27.2056 6.7552 25.1834C4.93933 23.1611 3.8354 20.6 3.61211 17.8914C3.38881 15.1827 4.05841 12.4754 5.51861 10.1831C6.9788 7.89075 9.1493 6.13951 11.6985 5.19689C14.2477 4.25427 17.0353 4.17212 19.6356 4.96297L20.5245 3.39853C17.6709 2.44098 14.5871 2.41348 11.7168 3.31998C8.84659 4.22647 6.33797 6.02023 4.55199 8.44309C2.76601 10.8659 1.79477 13.793 1.77805 16.8029C1.76133 19.8128 2.7 22.7505 4.45896 25.193C6.21791 27.6356 8.70646 29.4571 11.5664 30.3954C14.4264 31.3337 17.5104 31.3405 20.3744 30.4147C23.2385 29.4889 25.735 27.6783 27.5046 25.2435C29.2743 22.8087 30.2258 19.8752 30.2223 16.8652C30.2177 16.0876 30.1493 15.3116 30.0178 14.5452V14.5452Z" fill="#21BF86"/>
<path d="M16 7.97629C16.5981 7.98329 17.1938 8.0518 17.7778 8.18074L18.5334 6.88296C17.2102 6.55868 15.8356 6.50101 14.4899 6.71329C13.1442 6.92558 11.8542 7.40358 10.695 8.11944C9.5359 8.83529 8.53083 9.77469 7.7384 10.8829C6.94597 11.9911 6.38203 13.2459 6.07944 14.5743C5.77685 15.9026 5.74166 17.2779 5.97592 18.6199C6.21018 19.962 6.70921 21.244 7.44393 22.3913C8.17865 23.5386 9.13436 24.5282 10.2554 25.3024C11.3764 26.0766 12.6403 26.6199 13.9734 26.9007L14.2223 25.4874C12.1439 24.9738 10.3207 23.7273 9.08775 21.977C7.85484 20.2267 7.29506 18.0903 7.5113 15.9603C7.72755 13.8303 8.70527 11.8499 10.2648 10.3832C11.8243 8.91637 13.8608 8.06172 16 7.97629V7.97629Z" fill="#21BF86"/>
<path d="M23.8666 1.87846L18.7822 10.6429C18.6639 10.8165 18.596 11.0195 18.586 11.2294C18.576 11.4392 18.6243 11.6477 18.7256 11.8318C18.8268 12.0159 18.977 12.1684 19.1596 12.2723C19.3422 12.3762 19.55 12.4276 19.76 12.4207H29.9378C30.1477 12.4276 30.3555 12.3762 30.5381 12.2723C30.7207 12.1684 30.8709 12.0159 30.9722 11.8318C31.0734 11.6477 31.1217 11.4392 31.1117 11.2294C31.1017 11.0195 31.0338 10.8165 30.9155 10.6429L25.8311 1.87846C25.7308 1.70695 25.5874 1.56469 25.4151 1.46582C25.2427 1.36696 25.0475 1.31494 24.8489 1.31494C24.6502 1.31494 24.455 1.36696 24.2827 1.46582C24.1104 1.56469 23.9669 1.70695 23.8666 1.87846V1.87846Z" fill="#21BF86"/>
</svg>
