<svg width="50" height="50" viewBox="0 0 50 50" fill="none" xmlns="http://www.w3.org/2000/svg">
<path d="M23.7028 41.5328C23.176 42.0596 22.8859 42.76 22.8859 43.5049C22.8859 44.2498 23.1759 44.9502 23.7028 45.4768C24.2295 46.0037 24.9299 46.2938 25.6748 46.2938C26.4198 46.2938 27.1202 46.0037 27.6469 45.4769C28.1737 44.9502 28.4638 44.2498 28.4638 43.5049C28.4638 42.76 28.1738 42.0596 27.6469 41.5328C27.6469 41.5327 27.6469 41.5327 27.6469 41.5327C26.5595 40.4455 24.7902 40.4454 23.7028 41.5328V41.5328ZM26.6124 44.4424C26.362 44.6928 26.029 44.8308 25.6748 44.8308C25.3207 44.8308 24.9877 44.6929 24.7372 44.4423C24.4868 44.1919 24.3489 43.859 24.3489 43.5048C24.3489 43.1507 24.4868 42.8177 24.7372 42.5672C24.9957 42.3087 25.3353 42.1794 25.6748 42.1794C26.0144 42.1794 26.3539 42.3087 26.6124 42.5672C26.8628 42.8176 27.0008 43.1506 27.0008 43.5048C27.0007 43.859 26.8628 44.1919 26.6124 44.4424V44.4424Z" fill="white"/>
<path d="M49.3583 20.7685L37.6624 9.07268C37.2479 8.65812 36.6968 8.4298 36.1106 8.4298C35.5244 8.4298 34.9732 8.65812 34.5588 9.07258L32.1685 11.4629C32.064 11.2433 31.9233 11.0366 31.7417 10.855L21.5349 0.648266C20.6791 -0.2073 19.2869 -0.2073 18.4313 0.648266L15.0005 4.07912C14.7147 4.36487 14.7147 4.82795 15.0005 5.11369C15.2861 5.39924 15.7493 5.39924 16.035 5.11369L16.2484 4.90022L24.9443 13.5961L19.5981 18.9422L10.9023 10.2462L13.6083 7.54025C13.894 7.25451 13.894 6.79143 13.6083 6.50568C13.3227 6.22014 12.8595 6.22014 12.5738 6.50568L7.52344 11.5562C6.66788 12.4118 6.66788 13.8041 7.52344 14.6598L10.9412 18.0776C10.2666 17.9743 9.57207 17.9614 8.87315 18.0457L2.36202 18.876C1.65059 18.9615 1.01514 19.3191 0.572759 19.8827C0.130376 20.4463 -0.0660107 21.1484 0.0196338 21.8599C0.196587 23.3281 1.53526 24.3795 3.0085 24.2014L9.51983 23.3711C10.193 23.2896 10.8545 23.5185 11.3341 23.9982L24.4656 37.1298C23.2259 37.363 22.0414 37.9576 21.0841 38.9149C20.2431 39.756 19.65 40.8081 19.3689 41.9581C19.2729 42.3506 19.5132 42.7465 19.9057 42.8424C20.2976 42.938 20.694 42.6979 20.7899 42.3056C21.0075 41.4158 21.4669 40.6011 22.1186 39.9495C24.0795 37.9885 27.2701 37.9885 29.2311 39.9495C31.1919 41.9104 31.1919 45.1011 29.2311 47.0619C27.2701 49.0228 24.0794 49.0227 22.1187 47.062C21.613 46.5562 21.2285 45.9643 20.976 45.3024C20.8319 44.925 20.4091 44.7356 20.0317 44.8798C19.6543 45.0238 19.465 45.4465 19.6091 45.824C19.9355 46.6796 20.4318 47.4441 21.0842 48.0965C22.3499 49.3621 24.0124 49.9949 25.6749 49.9949C27.3374 49.9949 29 49.3621 30.2656 48.0965C31.7841 46.578 32.3905 44.4885 32.0873 42.5129C32.4058 42.5533 32.7247 42.5744 33.0426 42.5744C35.0218 42.5744 36.9532 41.7991 38.3892 40.3631L45.8917 32.8606C46.9375 31.8147 46.9375 30.1131 45.8917 29.0672C45.5861 28.7616 45.2195 28.5395 44.8196 28.4108L49.3584 23.8721C50.2139 23.0164 50.2139 21.6241 49.3583 20.7685V20.7685ZM45.6424 19.1217L34.8529 29.9111L29.5067 24.565L40.2962 13.7756L45.6424 19.1217ZM8.55792 12.5906L9.86778 11.2808L18.5981 20.0111C18.8738 20.2868 19.236 20.4246 19.5981 20.4246C19.9604 20.4246 20.3226 20.2868 20.5982 20.0111L26.0135 14.5959C26.5647 14.0444 26.5648 13.1473 26.0134 12.5958L17.2831 3.86555L19.4658 1.68274C19.7511 1.39748 20.2152 1.39758 20.5004 1.68274L30.7071 11.8895C30.9924 12.1747 30.9924 12.6389 30.7071 12.924L19.7993 23.8319C19.5142 24.1173 19.05 24.1172 18.7647 23.8319L8.55801 13.6253C8.27276 13.3401 8.27276 12.8759 8.55792 12.5906V12.5906ZM44.8571 31.826L37.3546 39.3285C35.858 40.8251 33.6936 41.4309 31.6401 40.9477C31.3245 40.209 30.8675 39.5168 30.2656 38.9149C29.2021 37.8515 27.8581 37.2365 26.4695 37.0667C26.4628 37.0594 26.4565 37.0517 26.4494 37.0444L12.3686 22.9636C11.5692 22.1643 10.4672 21.7837 9.33965 21.9193L2.82842 22.7495C2.16065 22.8296 1.55254 22.3523 1.47217 21.6849C1.43321 21.3615 1.52247 21.0423 1.72364 20.786C1.92471 20.5299 2.21348 20.3674 2.5419 20.3278L9.05313 19.4976C10.9237 19.2719 12.7604 19.907 14.0927 21.2394L30.4576 37.6043C31.8838 39.0302 34.2042 39.0302 35.6303 37.6043L43.1328 30.1018C43.6082 29.6263 44.3816 29.6263 44.857 30.1018C45.3324 30.5772 45.3324 31.3507 44.8571 31.826V31.826ZM48.3237 22.8376L35.9674 35.1939C35.8292 35.3319 35.6455 35.4081 35.4502 35.4081C35.2548 35.4081 35.0711 35.332 34.9329 35.1938L26.7062 26.967C26.4205 26.6815 25.9573 26.6815 25.6717 26.967C25.3859 27.2527 25.3859 27.7158 25.6717 28.0016L33.8984 36.2282C34.0769 36.4066 34.2815 36.5481 34.5024 36.6542C33.6418 37.4218 32.318 37.3954 31.4924 36.5697L20.219 25.2966C20.4413 25.1918 20.6504 25.0501 20.8339 24.8666L21.7751 23.9254C21.8813 24.1475 22.0233 24.3532 22.2025 24.5324L23.4664 25.7963C23.7521 26.0819 24.2152 26.082 24.5009 25.7964C24.7866 25.5107 24.7866 25.0476 24.5009 24.7619L23.237 23.498C23.0988 23.3599 23.0228 23.1762 23.0228 22.9808C23.0228 22.7856 23.0987 22.6021 23.2366 22.464L35.5933 10.1072C35.7314 9.96916 35.9151 9.89299 36.1105 9.89299C36.3059 9.89299 36.4896 9.96906 36.6277 10.1073L39.2616 12.7412L28.4378 23.565C27.8863 24.1164 27.8863 25.0136 28.4378 25.5651L33.8528 30.9802C34.1199 31.2474 34.4752 31.3945 34.8529 31.3945C35.2307 31.3945 35.5858 31.2474 35.8529 30.9803L46.6769 20.1564L48.3235 21.803C48.6089 22.0882 48.6089 22.5524 48.3237 22.8376V22.8376Z" fill="white"/>
<path d="M18.129 15.5905C18.2719 15.7333 18.4591 15.8047 18.6463 15.8047C18.8335 15.8047 19.0207 15.7333 19.1636 15.5905L21.7331 13.0209C22.0189 12.7352 22.0189 12.2721 21.7331 11.9864C21.4475 11.7008 20.9843 11.7008 20.6987 11.9864L18.1291 14.556C17.8433 14.8416 17.8433 15.3046 18.129 15.5905V15.5905Z" fill="white"/>
<path d="M17.9861 9.27373L15.4165 11.8433C15.1308 12.129 15.1308 12.5921 15.4165 12.8778C15.5594 13.0206 15.7466 13.0921 15.9338 13.0921C16.121 13.0921 16.3082 13.0206 16.4511 12.8778L19.0206 10.3083C19.3064 10.0226 19.3064 9.55947 19.0206 9.27373C18.7349 8.98818 18.2717 8.98818 17.9861 9.27373V9.27373Z" fill="white"/>
<path d="M16.3192 7.60698L13.7497 10.1766C13.464 10.4624 13.464 10.9254 13.7497 11.2112C13.8926 11.354 14.0798 11.4254 14.267 11.4254C14.4542 11.4254 14.6414 11.354 14.7843 11.2112L17.3538 8.64155C17.6395 8.35581 17.6395 7.89272 17.3538 7.60698C17.0682 7.32144 16.605 7.32144 16.3192 7.60698Z" fill="white"/>
<path d="M32.166 24.8215L34.7355 27.391C34.8784 27.5338 35.0656 27.6053 35.2528 27.6053C35.44 27.6053 35.6272 27.5338 35.7701 27.391C36.0558 27.1053 36.0558 26.6422 35.7701 26.3565L33.2005 23.7869C32.9149 23.5014 32.4517 23.5014 32.1661 23.7869C31.8802 24.0727 31.8802 24.5357 32.166 24.8215V24.8215Z" fill="white"/>
<path d="M37.4212 24.7052C37.5641 24.848 37.7513 24.9195 37.9385 24.9195C38.1257 24.9195 38.3129 24.848 38.4557 24.7052C38.7415 24.4195 38.7415 23.9564 38.4557 23.6706L35.8862 21.1011C35.6006 20.8156 35.1374 20.8156 34.8518 21.1011C34.566 21.3869 34.566 21.8499 34.8518 22.1357L37.4212 24.7052Z" fill="white"/>
<path d="M40.1337 21.9928C40.2766 22.1356 40.4638 22.2071 40.651 22.2071C40.8382 22.2071 41.0254 22.1356 41.1683 21.9928C41.454 21.7071 41.454 21.244 41.1683 20.9583L38.5988 18.3887C38.3131 18.1032 37.8499 18.1032 37.5643 18.3887C37.2785 18.6745 37.2785 19.1376 37.5643 19.4233L40.1337 21.9928Z" fill="white"/>
<path d="M41.8005 20.3258C41.9434 20.4686 42.1306 20.5401 42.3178 20.5401C42.505 20.5401 42.6922 20.4686 42.8351 20.3258C43.1208 20.0401 43.1208 19.577 42.8351 19.2913L40.2656 16.7217C39.9799 16.4362 39.5167 16.4362 39.2311 16.7217C38.9453 17.0075 38.9453 17.4706 39.2311 17.7563L41.8005 20.3258Z" fill="white"/>
</svg>
