<svg width="48" height="48" viewBox="0 0 48 48" fill="none" xmlns="http://www.w3.org/2000/svg">
<path d="M23.2551 10.9114H11.6094C11.5196 10.9113 11.4307 10.929 11.3477 10.9633C11.2648 10.9976 11.1894 11.048 11.1259 11.1115C11.0624 11.175 11.012 11.2503 10.9777 11.3333C10.9434 11.4163 10.9257 11.5052 10.9258 11.595V23.2411C10.9258 23.4224 10.9978 23.5962 11.126 23.7244C11.2542 23.8526 11.4281 23.9247 11.6094 23.9247H23.2551C23.4364 23.9247 23.6103 23.8526 23.7385 23.7244C23.8667 23.5962 23.9387 23.4224 23.9387 23.2411V11.595C23.9387 11.5052 23.9211 11.4163 23.8867 11.3333C23.8524 11.2503 23.8021 11.175 23.7386 11.1115C23.6751 11.048 23.5997 10.9976 23.5167 10.9633C23.4338 10.929 23.3449 10.9113 23.2551 10.9114ZM22.5715 14.4836H19.6859V12.2786H22.5715V14.4836ZM18.3188 12.2786V16.5043H16.5453V12.2786H18.3188ZM15.1781 12.2786V14.4836H12.293V12.2786H15.1781ZM12.293 22.5575V15.8508H15.1781V17.1879C15.1781 17.3692 15.2501 17.5431 15.3783 17.6713C15.5065 17.7995 15.6804 17.8715 15.8617 17.8715H19.0023C19.1836 17.8715 19.3575 17.7995 19.4857 17.6713C19.6139 17.5431 19.6859 17.3692 19.6859 17.1879V15.8508H22.5715V22.5575H12.293Z" fill="white"/>
<path d="M26.1976 8.65254C24.4629 6.91939 22.2533 5.73945 19.8481 5.26187C17.4429 4.7843 14.9501 5.03053 12.6848 5.96945C10.4195 6.90836 8.48341 8.49781 7.12129 10.5369C5.75917 12.5759 5.03217 14.973 5.03217 17.4252C5.03217 19.8774 5.75917 22.2745 7.12129 24.3135C8.48341 26.3526 10.4195 27.942 12.6848 28.8809C14.9501 29.8198 17.4429 30.0661 19.8481 29.5885C22.2533 29.1109 24.4629 27.931 26.1976 26.1978C28.5205 23.8692 29.825 20.7143 29.825 17.4252C29.825 14.1361 28.5205 10.9812 26.1976 8.65254V8.65254ZM25.2308 25.231C23.425 27.0367 21.0489 28.1603 18.5074 28.4104C15.966 28.6606 13.4164 28.0218 11.2931 26.6029C9.16987 25.184 7.60425 23.0728 6.86304 20.629C6.12184 18.1852 6.25091 15.5601 7.22825 13.2008C8.2056 10.8414 9.97076 8.89401 12.223 7.69024C14.4752 6.48648 17.0751 6.10086 19.5798 6.59911C22.0844 7.09735 24.3388 8.44862 25.9589 10.4227C27.579 12.3967 28.4644 14.8715 28.4644 17.4252C28.4684 18.8755 28.1846 20.3122 27.6296 21.652C27.0745 22.9919 26.2592 24.2084 25.2308 25.231V25.231Z" fill="white"/>
<path d="M45.9484 39.8114L31.8547 25.7188C33.8609 22.2252 34.5298 18.1217 33.737 14.1718C32.9441 10.2219 30.7435 6.69444 27.5445 4.24564C24.3454 1.79683 20.3658 0.59341 16.3458 0.859237C12.3259 1.12506 8.5394 2.84204 5.69068 5.69077C2.84195 8.53949 1.12497 12.326 0.859145 16.3459C0.593319 20.3659 1.79674 24.3455 4.24555 27.5445C6.69435 30.7436 10.2218 32.9442 14.1717 33.7371C18.1217 34.5299 22.2251 33.861 25.7187 31.8548L39.8125 45.9485C40.6263 46.7623 41.7301 47.2195 42.881 47.2195C44.032 47.2195 45.1358 46.7623 45.9496 45.9485C46.7634 45.1347 47.2206 44.0309 47.2206 42.88C47.2206 41.729 46.7634 40.6252 45.9496 39.8114H45.9484ZM6.62225 28.2278C4.48569 26.0912 3.03066 23.3691 2.44119 20.4056C1.85172 17.442 2.15426 14.3703 3.31057 11.5787C4.46688 8.78716 6.42501 6.40116 8.93736 4.72247C11.4497 3.04378 14.4034 2.14778 17.425 2.14778C20.4466 2.14778 23.4003 3.04378 25.9126 4.72247C28.425 6.40116 30.3831 8.78716 31.5394 11.5787C32.6957 14.3703 32.9983 17.442 32.4088 20.4056C31.8193 23.3691 30.3643 26.0912 28.2277 28.2278C25.3604 31.0887 21.4754 32.6954 17.425 32.6954C13.3746 32.6954 9.48954 31.0887 6.62225 28.2278V28.2278ZM44.9816 44.9821C44.424 45.5394 43.6679 45.8525 42.8795 45.8525C42.0911 45.8525 41.335 45.5394 40.7773 44.9821L26.9008 31.1048C28.5461 29.9709 29.9708 28.5462 31.1047 26.9009L44.982 40.7778C45.5393 41.3355 45.8524 42.0916 45.8524 42.88C45.8524 43.6683 45.5393 44.4245 44.982 44.9821H44.9816Z" fill="white"/>
<path d="M38.1285 35.699C38.065 35.6355 37.9897 35.5852 37.9067 35.5508C37.8238 35.5165 37.7349 35.4988 37.6451 35.4988C37.5553 35.4988 37.4664 35.5165 37.3835 35.5508C37.3006 35.5852 37.2252 35.6355 37.1617 35.699C37.0982 35.7625 37.0479 35.8379 37.0135 35.9208C36.9792 36.0037 36.9615 36.0926 36.9615 36.1824C36.9615 36.2722 36.9792 36.3611 37.0135 36.444C37.0479 36.527 37.0982 36.6023 37.1617 36.6658L41.782 41.2861C41.9102 41.4145 42.0842 41.4867 42.2656 41.4868C42.447 41.4869 42.6211 41.4149 42.7494 41.2867C42.8778 41.1585 42.9499 40.9846 42.9501 40.8031C42.9502 40.6217 42.8782 40.4477 42.75 40.3193L38.1285 35.699Z" fill="white"/>
<path d="M34.4719 32.0418C34.3437 31.9136 34.1698 31.8416 33.9885 31.8416C33.8072 31.8416 33.6333 31.9136 33.5051 32.0418C33.3769 32.17 33.3048 32.3439 33.3048 32.5252C33.3048 32.7065 33.3769 32.8804 33.5051 33.0086L34.8961 34.3996C34.9592 34.4649 35.0346 34.5169 35.118 34.5528C35.2014 34.5886 35.2911 34.6074 35.3819 34.6082C35.4727 34.6089 35.5627 34.5916 35.6467 34.5572C35.7307 34.5229 35.807 34.4721 35.8712 34.4079C35.9353 34.3437 35.9861 34.2673 36.0204 34.1833C36.0548 34.0993 36.0721 34.0093 36.0713 33.9185C36.0705 33.8278 36.0516 33.7381 36.0157 33.6547C35.9799 33.5713 35.9278 33.4959 35.8625 33.4328L34.4719 32.0418Z" fill="white"/>
</svg>
