<svg width="50" height="46" viewBox="0 0 50 46" fill="none" xmlns="http://www.w3.org/2000/svg">
<mask id="path-1-inside-1" fill="white">
<path fill-rule="evenodd" clip-rule="evenodd" d="M20.4185 0.835403C20.4185 0.867066 20.3141 0.892973 20.1865 0.892973C20.0589 0.892973 19.9545 0.91888 19.9545 0.950544C19.9545 0.982207 19.9023 1.00811 19.8385 1.00811C19.7746 1.00811 19.7224 1.03402 19.7224 1.06568C19.7224 1.09735 19.6807 1.12326 19.6297 1.12326C19.5787 1.12326 19.4638 1.20098 19.3744 1.29597C19.285 1.39096 19.1701 1.46868 19.1191 1.46868C19.0681 1.46868 19.0264 1.51479 19.0264 1.5711C19.0264 1.62746 18.9741 1.71088 18.9103 1.75653C18.8465 1.80218 18.7943 1.8799 18.7943 1.92924C18.7943 1.97858 18.7421 2.0563 18.6783 2.10195C18.6102 2.15072 18.5623 2.251 18.5623 2.34496C18.5623 2.43293 18.5362 2.50495 18.5043 2.50495C18.4671 2.50495 18.4463 3.07242 18.4463 4.09222C18.4463 5.39113 18.4312 5.69447 18.3634 5.76177C18.294 5.83068 17.8507 5.84404 15.6371 5.84404C13.9134 5.84404 12.9936 5.86407 12.9936 5.90161C12.9936 5.93327 12.9414 5.95918 12.8776 5.95918C12.8138 5.95918 12.7616 5.98509 12.7616 6.01675C12.7616 6.04841 12.7094 6.07432 12.6456 6.07432C12.5818 6.07432 12.5296 6.10023 12.5296 6.13189C12.5296 6.16355 12.4773 6.18946 12.4135 6.18946C12.3497 6.18946 12.2975 6.21537 12.2975 6.24703C12.2975 6.2787 12.2578 6.3046 12.2092 6.3046C12.1017 6.3046 11.4854 6.90547 11.4854 7.0103C11.4854 7.05146 11.4332 7.12251 11.3694 7.16816C11.3056 7.21381 11.2534 7.29723 11.2534 7.35359C11.2534 7.4099 11.2273 7.45601 11.1954 7.45601C11.1635 7.45601 11.1374 7.53373 11.1374 7.62872C11.1374 7.72372 11.1113 7.80144 11.0794 7.80144C11.0471 7.80144 11.0214 7.95498 11.0214 8.14686C11.0214 8.33874 10.9956 8.49228 10.9634 8.49228C10.9251 8.49228 10.9053 10.2002 10.9053 13.5009C10.9053 16.8016 10.9251 18.5096 10.9634 18.5096C10.9953 18.5096 11.0214 18.6391 11.0214 18.7974C11.0214 18.9557 11.0475 19.0853 11.0794 19.0853C11.1113 19.0853 11.1374 19.163 11.1374 19.258C11.1374 19.353 11.1635 19.4307 11.1954 19.4307C11.2273 19.4307 11.2534 19.4825 11.2534 19.5458C11.2534 19.6091 11.2795 19.661 11.3114 19.661C11.3433 19.661 11.3694 19.7071 11.3694 19.7634C11.3694 19.8197 11.4216 19.9032 11.4854 19.9488C11.5492 19.9945 11.6014 20.0661 11.6014 20.1081C11.6014 20.2015 11.8611 20.467 11.9526 20.467C11.9891 20.467 12.0921 20.5447 12.1815 20.6397C12.2709 20.7347 12.3858 20.8124 12.4368 20.8124C12.4878 20.8124 12.5296 20.8383 12.5296 20.8699C12.5296 20.9016 12.6079 20.9275 12.7036 20.9275C12.7993 20.9275 12.8776 20.9534 12.8776 20.9851C12.8776 21.0167 12.9559 21.0427 13.0516 21.0427C13.1473 21.0427 13.2256 21.0686 13.2256 21.1002C13.2256 21.1384 17.0348 21.1578 24.537 21.1578C32.0393 21.1578 35.8484 21.1384 35.8484 21.1002C35.8484 21.0686 35.9267 21.0427 36.0225 21.0427C36.1182 21.0427 36.1965 21.0167 36.1965 20.9851C36.1965 20.9534 36.2748 20.9275 36.3705 20.9275C36.4662 20.9275 36.5445 20.9016 36.5445 20.8699C36.5445 20.8383 36.591 20.8124 36.6477 20.8124C36.7045 20.8124 36.7886 20.7606 36.8346 20.6972C36.8806 20.6339 36.9524 20.5821 36.9943 20.5821C37.0875 20.5821 37.4726 20.2082 37.4726 20.1178C37.4726 20.0819 37.5509 19.98 37.6467 19.8912C37.7424 19.8025 37.8207 19.6885 37.8207 19.6379C37.8207 19.5872 37.8468 19.5458 37.8787 19.5458C37.9106 19.5458 37.9367 19.4681 37.9367 19.3731C37.9367 19.2781 37.9628 19.2004 37.9947 19.2004C38.0266 19.2004 38.0527 19.0968 38.0527 18.9701C38.0527 18.8435 38.0788 18.7398 38.1107 18.7398C38.1489 18.7398 38.1687 16.9551 38.1687 13.5009C38.1687 10.0467 38.1489 8.262 38.1107 8.262C38.0788 8.262 38.0527 8.15837 38.0527 8.03172C38.0527 7.90506 38.0266 7.80144 37.9947 7.80144C37.9628 7.80144 37.9367 7.72372 37.9367 7.62872C37.9367 7.53373 37.9106 7.45601 37.8787 7.45601C37.8468 7.45601 37.8207 7.4042 37.8207 7.34087C37.8207 7.27754 37.7946 7.22573 37.7627 7.22573C37.7308 7.22573 37.7047 7.18641 37.7047 7.13828C37.7047 7.03195 36.983 6.3046 36.8774 6.3046C36.8361 6.3046 36.7645 6.25279 36.7185 6.18946C36.6694 6.12187 36.5684 6.07432 36.4737 6.07432C36.3851 6.07432 36.3125 6.04841 36.3125 6.01675C36.3125 5.98509 36.2603 5.95918 36.1965 5.95918C36.1327 5.95918 36.0805 5.93327 36.0805 5.90161C36.0805 5.86407 35.1606 5.84404 33.437 5.84404C31.2234 5.84404 30.7801 5.83068 30.7107 5.76177C30.6429 5.69447 30.6278 5.39113 30.6278 4.09222C30.6278 3.07242 30.607 2.50495 30.5698 2.50495C30.5379 2.50495 30.5118 2.43293 30.5118 2.34496C30.5118 2.251 30.4639 2.15072 30.3958 2.10195C30.332 2.0563 30.2797 1.97288 30.2797 1.91652C30.2797 1.86022 30.2536 1.8141 30.2217 1.8141C30.1898 1.8141 30.1637 1.7734 30.1637 1.72366C30.1637 1.61744 30.0274 1.46868 29.9301 1.46868C29.8928 1.46868 29.7891 1.39096 29.6997 1.29597C29.6103 1.20098 29.4954 1.12326 29.4444 1.12326C29.3933 1.12326 29.3516 1.09735 29.3516 1.06568C29.3516 1.03402 29.2994 1.00811 29.2356 1.00811C29.1718 1.00811 29.1196 0.982207 29.1196 0.950544C29.1196 0.91888 29.0413 0.892973 28.9456 0.892973C28.8499 0.892973 28.7716 0.867066 28.7716 0.835403C28.7716 0.797579 27.3407 0.777832 24.595 0.777832C21.8494 0.777832 20.4185 0.797579 20.4185 0.835403ZM28.6865 2.70454L28.8876 2.90408V4.37409V5.84404H24.537H20.1865V4.37438V2.90466L20.375 2.70875L20.5635 2.51283L24.5245 2.50892L28.4854 2.50495L28.6865 2.70454ZM2.78434 23.2879C2.78434 23.3199 2.62964 23.3455 2.4363 23.3455C2.24296 23.3455 2.08826 23.371 2.08826 23.403C2.08826 23.4347 2.03605 23.4606 1.97224 23.4606C1.90844 23.4606 1.85623 23.4865 1.85623 23.5182C1.85623 23.5499 1.80402 23.5758 1.74022 23.5758C1.67641 23.5758 1.6242 23.6017 1.6242 23.6333C1.6242 23.665 1.57774 23.6909 1.52101 23.6909C1.46422 23.6909 1.38016 23.7427 1.33417 23.806C1.28817 23.8694 1.21629 23.9212 1.17441 23.9212C1.07545 23.9212 0.696086 24.2977 0.696086 24.3959C0.696086 24.4375 0.64388 24.5088 0.580072 24.5545C0.516264 24.6001 0.464057 24.6835 0.464057 24.7399C0.464057 24.7962 0.437954 24.8423 0.40605 24.8423C0.374146 24.8423 0.348043 24.8941 0.348043 24.9575C0.348043 25.0208 0.32194 25.0726 0.290036 25.0726C0.258132 25.0726 0.232029 25.1244 0.232029 25.1877C0.232029 25.2511 0.205925 25.3029 0.174022 25.3029C0.14177 25.3029 0.116014 25.4564 0.116014 25.6483C0.116014 25.8402 0.0902592 25.9937 0.0580072 25.9937C0.0199545 25.9937 0 27.2219 0 29.5631C0 31.9043 0.0199545 33.1325 0.0580072 33.1325C0.0902592 33.1325 0.116014 33.286 0.116014 33.4779C0.116014 33.6698 0.14177 33.8233 0.174022 33.8233C0.205925 33.8233 0.232029 33.8751 0.232029 33.9385C0.232029 34.0018 0.258132 34.0536 0.290036 34.0536C0.32194 34.0536 0.348043 34.1054 0.348043 34.1687C0.348043 34.2321 0.374146 34.2839 0.40605 34.2839C0.437954 34.2839 0.464057 34.33 0.464057 34.3863C0.464057 34.4427 0.516264 34.5261 0.580072 34.5717C0.64388 34.6174 0.696086 34.6887 0.696086 34.7303C0.696086 34.8285 1.07545 35.205 1.17441 35.205C1.21629 35.205 1.28817 35.2568 1.33417 35.3201C1.38016 35.3835 1.46422 35.4353 1.52101 35.4353C1.57774 35.4353 1.6242 35.4612 1.6242 35.4929C1.6242 35.5245 1.67641 35.5504 1.74022 35.5504C1.80402 35.5504 1.85623 35.5763 1.85623 35.608C1.85623 35.6397 1.93454 35.6656 2.03025 35.6656C2.12596 35.6656 2.20427 35.6915 2.20427 35.7231C2.20427 35.7548 2.33479 35.7807 2.49431 35.7807C2.65383 35.7807 2.78434 35.8066 2.78434 35.8383C2.78434 35.8758 3.71246 35.8958 5.45267 35.8958H8.12101V38.7744V41.6529H7.65695C7.38623 41.6529 7.19289 41.6769 7.19289 41.7105C7.19289 41.7421 7.15287 41.768 7.10397 41.768C7.05501 41.768 6.92449 41.8579 6.81393 41.9676L6.61282 42.1672V43.4069C6.61282 44.195 6.63393 44.6466 6.67083 44.6466C6.70273 44.6466 6.72883 44.6866 6.72883 44.7355C6.72883 44.8754 6.99845 45.1071 7.16128 45.1071C7.24249 45.1071 7.3089 45.133 7.3089 45.1647C7.3089 45.2025 8.72039 45.2223 11.4274 45.2223C14.1344 45.2223 15.5459 45.2025 15.5459 45.1647C15.5459 45.133 15.6121 45.1071 15.6929 45.1071C15.7832 45.1071 15.9173 45.0302 16.0409 44.9075L16.242 44.708V43.4376V42.1672L16.0409 41.9676C15.9303 41.8579 15.7998 41.768 15.7509 41.768C15.702 41.768 15.6619 41.7421 15.6619 41.7105C15.6619 41.6769 15.4686 41.6529 15.1979 41.6529H14.7338V38.7744V35.8958H24.537H34.3403V38.7744V41.6529H33.8762C33.6055 41.6529 33.4121 41.6769 33.4121 41.7105C33.4121 41.7421 33.3721 41.768 33.3232 41.768C33.2743 41.768 33.1437 41.8579 33.0332 41.9676L32.8321 42.1672V43.4376V44.708L33.0332 44.9075C33.1568 45.0302 33.2908 45.1071 33.3812 45.1071C33.462 45.1071 33.5282 45.133 33.5282 45.1647C33.5282 45.2025 34.9396 45.2223 37.6467 45.2223C40.3537 45.2223 41.7652 45.2025 41.7652 45.1647C41.7652 45.133 41.8313 45.1071 41.9121 45.1071C42.0025 45.1071 42.1365 45.0302 42.2601 44.9075L42.4613 44.708V43.4376V42.1672L42.2601 41.9676C42.1496 41.8579 42.0191 41.768 41.9701 41.768C41.9212 41.768 41.8812 41.7421 41.8812 41.7105C41.8812 41.6769 41.6878 41.6529 41.4171 41.6529H40.9531V38.7744V35.8958H43.6794C45.4583 35.8958 46.4057 35.8758 46.4057 35.8383C46.4057 35.8066 46.5102 35.7807 46.6378 35.7807C46.7654 35.7807 46.8698 35.7548 46.8698 35.7231C46.8698 35.6915 46.9481 35.6656 47.0438 35.6656C47.1395 35.6656 47.2178 35.6397 47.2178 35.608C47.2178 35.5763 47.2904 35.5504 47.379 35.5504C47.4737 35.5504 47.5748 35.5029 47.6239 35.4353C47.6699 35.372 47.7415 35.3201 47.783 35.3201C47.8813 35.3201 48.494 34.712 48.494 34.6144C48.494 34.5733 48.5462 34.5022 48.61 34.4566C48.6738 34.4109 48.726 34.3275 48.726 34.2712C48.726 34.2148 48.7521 34.1687 48.784 34.1687C48.8159 34.1687 48.842 34.091 48.842 33.996C48.842 33.901 48.8681 33.8233 48.9001 33.8233C48.932 33.8233 48.9581 33.7197 48.9581 33.593C48.9581 33.4664 48.9842 33.3627 49.0161 33.3627C49.0542 33.3627 49.0741 32.0578 49.0741 29.5631C49.0741 27.0684 49.0542 25.7634 49.0161 25.7634C48.9842 25.7634 48.9581 25.6598 48.9581 25.5332C48.9581 25.4065 48.932 25.3029 48.9001 25.3029C48.8681 25.3029 48.842 25.2252 48.842 25.1302C48.842 25.0352 48.8159 24.9575 48.784 24.9575C48.7521 24.9575 48.726 24.9113 48.726 24.855C48.726 24.7987 48.6738 24.7153 48.61 24.6696C48.5462 24.6239 48.494 24.5529 48.494 24.5117C48.494 24.4069 47.8777 23.806 47.7702 23.806C47.7216 23.806 47.6819 23.7801 47.6819 23.7485C47.6819 23.7168 47.6297 23.6909 47.5659 23.6909C47.5021 23.6909 47.4499 23.665 47.4499 23.6333C47.4499 23.6017 47.3977 23.5758 47.3339 23.5758C47.2701 23.5758 47.2178 23.5499 47.2178 23.5182C47.2178 23.4865 47.1656 23.4606 47.1018 23.4606C47.038 23.4606 46.9858 23.4347 46.9858 23.403C46.9858 23.371 46.8311 23.3455 46.6378 23.3455C46.4444 23.3455 46.2897 23.3199 46.2897 23.2879C46.2897 23.2496 39.0001 23.2303 24.537 23.2303C10.0739 23.2303 2.78434 23.2496 2.78434 23.2879ZM7.42492 27.0876C7.42492 27.1192 7.52933 27.1451 7.65695 27.1451C7.78456 27.1451 7.88898 27.171 7.88898 27.2027C7.88898 27.2344 7.94118 27.2603 8.00499 27.2603C8.0688 27.2603 8.12101 27.2862 8.12101 27.3178C8.12101 27.3495 8.17321 27.3754 8.23702 27.3754C8.30083 27.3754 8.35303 27.4013 8.35303 27.433C8.35303 27.4646 8.39277 27.4906 8.44132 27.4906C8.55618 27.4906 9.16513 28.0949 9.16513 28.2089C9.16513 28.2571 9.19124 28.2965 9.22314 28.2965C9.25505 28.2965 9.28115 28.3484 9.28115 28.4117C9.28115 28.475 9.30725 28.5268 9.33916 28.5268C9.37106 28.5268 9.39716 28.6045 9.39716 28.6995C9.39716 28.7945 9.42327 28.8722 9.45517 28.8722C9.48742 28.8722 9.51318 29.0258 9.51318 29.2177C9.51318 29.4096 9.53893 29.5631 9.57118 29.5631C9.60309 29.5631 9.62919 29.6149 9.62919 29.6782C9.62919 29.7416 9.60309 29.7934 9.57118 29.7934C9.53928 29.7934 9.51318 29.897 9.51318 30.0237C9.51318 30.1503 9.48707 30.2539 9.45517 30.2539C9.42327 30.2539 9.39716 30.3317 9.39716 30.4267C9.39716 30.5216 9.37106 30.5994 9.33916 30.5994C9.30725 30.5994 9.28115 30.6455 9.28115 30.7018C9.28115 30.7581 9.22894 30.8416 9.16513 30.8872C9.10133 30.9329 9.04912 31.004 9.04912 31.0454C9.04912 31.1502 8.5495 31.6356 8.44155 31.6356C8.39289 31.6356 8.35303 31.6615 8.35303 31.6932C8.35303 31.7249 8.30083 31.7508 8.23702 31.7508C8.17321 31.7508 8.12101 31.7767 8.12101 31.8083C8.12101 31.84 8.0688 31.8659 8.00499 31.8659C7.94118 31.8659 7.88898 31.8918 7.88898 31.9235C7.88898 31.9551 7.75846 31.9811 7.59894 31.9811C7.43942 31.9811 7.3089 32.007 7.3089 32.0386C7.3089 32.0703 7.17839 32.0962 7.01887 32.0962C6.85935 32.0962 6.72883 32.0703 6.72883 32.0386C6.72883 32.007 6.62442 31.9811 6.4968 31.9811C6.36919 31.9811 6.26478 31.9551 6.26478 31.9235C6.26478 31.8918 6.19221 31.8659 6.10357 31.8659C6.00891 31.8659 5.90786 31.8184 5.85873 31.7508C5.81273 31.6874 5.7412 31.6356 5.69984 31.6356C5.59427 31.6356 4.8726 30.9083 4.8726 30.802C4.8726 30.7538 4.8465 30.7145 4.8146 30.7145C4.78269 30.7145 4.75659 30.6368 4.75659 30.5418C4.75659 30.4468 4.73049 30.3691 4.69858 30.3691C4.66668 30.3691 4.64057 30.2914 4.64057 30.1964C4.64057 30.1014 4.61447 30.0237 4.58257 30.0237C4.54875 30.0237 4.52456 29.8318 4.52456 29.5631C4.52456 29.2944 4.54875 29.1025 4.58257 29.1025C4.61447 29.1025 4.64057 29.0248 4.64057 28.9298C4.64057 28.8348 4.66668 28.7571 4.69858 28.7571C4.73049 28.7571 4.75659 28.6794 4.75659 28.5844C4.75659 28.4894 4.78269 28.4117 4.8146 28.4117C4.8465 28.4117 4.8726 28.3724 4.8726 28.3242C4.8726 28.2104 5.59793 27.4906 5.71261 27.4906C5.7611 27.4906 5.80072 27.4646 5.80072 27.433C5.80072 27.4013 5.85292 27.3754 5.91673 27.3754C5.98054 27.3754 6.03275 27.3495 6.03275 27.3178C6.03275 27.2862 6.08495 27.2603 6.14876 27.2603C6.21257 27.2603 6.26478 27.2344 6.26478 27.2027C6.26478 27.171 6.36919 27.1451 6.4968 27.1451C6.62442 27.1451 6.72883 27.1192 6.72883 27.0876C6.72883 27.0556 6.88354 27.03 7.07688 27.03C7.27021 27.03 7.42492 27.0556 7.42492 27.0876ZM16.126 27.0876C16.126 27.1192 16.2304 27.1451 16.358 27.1451C16.4856 27.1451 16.5901 27.171 16.5901 27.2027C16.5901 27.2344 16.6423 27.2603 16.7061 27.2603C16.7699 27.2603 16.8221 27.2862 16.8221 27.3178C16.8221 27.3495 16.8743 27.3754 16.9381 27.3754C17.0019 27.3754 17.0541 27.4013 17.0541 27.433C17.0541 27.4646 17.0938 27.4906 17.1424 27.4906C17.2499 27.4906 17.8662 28.0914 17.8662 28.1963C17.8662 28.2374 17.9184 28.3085 17.9822 28.3541C18.046 28.3998 18.0982 28.4832 18.0982 28.5395C18.0982 28.5959 18.1243 28.642 18.1562 28.642C18.1882 28.642 18.2143 28.7456 18.2143 28.8722C18.2143 28.9989 18.2404 29.1025 18.2723 29.1025C18.3061 29.1025 18.3303 29.2944 18.3303 29.5631C18.3303 29.8318 18.3061 30.0237 18.2723 30.0237C18.2404 30.0237 18.2143 30.1014 18.2143 30.1964C18.2143 30.2914 18.1882 30.3691 18.1562 30.3691C18.1243 30.3691 18.0982 30.4411 18.0982 30.5291C18.0982 30.623 18.0503 30.7233 17.9822 30.7721C17.9184 30.8177 17.8662 30.8887 17.8662 30.9298C17.8662 31.0345 17.1333 31.7508 17.0262 31.7508C16.9777 31.7508 16.9381 31.7767 16.9381 31.8083C16.9381 31.84 16.8598 31.8659 16.7641 31.8659C16.6684 31.8659 16.5901 31.8918 16.5901 31.9235C16.5901 31.9551 16.4856 31.9811 16.358 31.9811C16.2304 31.9811 16.126 32.007 16.126 32.0386C16.126 32.0703 15.9955 32.0962 15.836 32.0962C15.6764 32.0962 15.5459 32.0703 15.5459 32.0386C15.5459 32.007 15.4154 31.9811 15.2559 31.9811C15.0964 31.9811 14.9659 31.9551 14.9659 31.9235C14.9659 31.8918 14.9136 31.8659 14.8498 31.8659C14.786 31.8659 14.7338 31.84 14.7338 31.8083C14.7338 31.7767 14.6816 31.7508 14.6178 31.7508C14.554 31.7508 14.5018 31.7249 14.5018 31.6932C14.5018 31.6615 14.4619 31.6356 14.4133 31.6356C14.3053 31.6356 13.8057 31.1502 13.8057 31.0454C13.8057 31.004 13.7535 30.9329 13.6897 30.8872C13.6259 30.8416 13.5737 30.7581 13.5737 30.7018C13.5737 30.6455 13.5476 30.5994 13.5157 30.5994C13.4838 30.5994 13.4577 30.5216 13.4577 30.4267C13.4577 30.3317 13.4316 30.2539 13.3997 30.2539C13.3642 30.2539 13.3417 29.9853 13.3417 29.5631C13.3417 29.1409 13.3642 28.8722 13.3997 28.8722C13.4316 28.8722 13.4577 28.7945 13.4577 28.6995C13.4577 28.6045 13.4838 28.5268 13.5157 28.5268C13.5476 28.5268 13.5737 28.475 13.5737 28.4117C13.5737 28.3484 13.5998 28.2965 13.6317 28.2965C13.6636 28.2965 13.6897 28.2571 13.6897 28.2089C13.6897 28.0949 14.2987 27.4906 14.4135 27.4906C14.4621 27.4906 14.5018 27.4646 14.5018 27.433C14.5018 27.4013 14.554 27.3754 14.6178 27.3754C14.6816 27.3754 14.7338 27.3495 14.7338 27.3178C14.7338 27.2862 14.786 27.2603 14.8498 27.2603C14.9136 27.2603 14.9659 27.2344 14.9659 27.2027C14.9659 27.171 15.0703 27.1451 15.1979 27.1451C15.3255 27.1451 15.4299 27.1192 15.4299 27.0876C15.4299 27.0556 15.5846 27.03 15.778 27.03C15.9713 27.03 16.126 27.0556 16.126 27.0876ZM24.8271 27.0876C24.8271 27.1192 24.9576 27.1451 25.1171 27.1451C25.2766 27.1451 25.4071 27.171 25.4071 27.2027C25.4071 27.2344 25.4594 27.2603 25.5232 27.2603C25.587 27.2603 25.6392 27.2862 25.6392 27.3178C25.6392 27.3495 25.6809 27.3754 25.7319 27.3754C25.7829 27.3754 25.8978 27.4531 25.9872 27.5481C26.0766 27.6431 26.1803 27.7208 26.2177 27.7208C26.3099 27.7208 26.4513 27.8675 26.4513 27.9631C26.4513 28.0059 26.5035 28.0782 26.5673 28.1238C26.6311 28.1695 26.6833 28.2529 26.6833 28.3093C26.6833 28.3656 26.7094 28.4117 26.7413 28.4117C26.7732 28.4117 26.7993 28.4635 26.7993 28.5268C26.7993 28.5902 26.8254 28.642 26.8573 28.642C26.8892 28.642 26.9153 28.7197 26.9153 28.8147C26.9153 28.9097 26.9414 28.9874 26.9733 28.9874C27.0081 28.9874 27.0313 29.2177 27.0313 29.5631C27.0313 29.9085 27.0081 30.1388 26.9733 30.1388C26.9414 30.1388 26.9153 30.2165 26.9153 30.3115C26.9153 30.4065 26.8892 30.4842 26.8573 30.4842C26.8254 30.4842 26.7993 30.536 26.7993 30.5994C26.7993 30.6627 26.7732 30.7145 26.7413 30.7145C26.7094 30.7145 26.6833 30.7606 26.6833 30.8169C26.6833 30.8733 26.6311 30.9567 26.5673 31.0024C26.5035 31.048 26.4513 31.1203 26.4513 31.1631C26.4513 31.2587 26.3099 31.4053 26.2177 31.4053C26.1803 31.4053 26.0766 31.4831 25.9872 31.5781C25.8978 31.6731 25.7829 31.7508 25.7319 31.7508C25.6809 31.7508 25.6392 31.7767 25.6392 31.8083C25.6392 31.84 25.5609 31.8659 25.4652 31.8659C25.3694 31.8659 25.2911 31.8918 25.2911 31.9235C25.2911 31.9551 25.1867 31.9811 25.0591 31.9811C24.9315 31.9811 24.8271 32.007 24.8271 32.0386C24.8271 32.0703 24.6966 32.0962 24.537 32.0962C24.3775 32.0962 24.247 32.0703 24.247 32.0386C24.247 32.007 24.1426 31.9811 24.015 31.9811C23.8874 31.9811 23.7829 31.9551 23.7829 31.9235C23.7829 31.8918 23.7046 31.8659 23.6089 31.8659C23.5132 31.8659 23.4349 31.84 23.4349 31.8083C23.4349 31.7767 23.3932 31.7508 23.3421 31.7508C23.2912 31.7508 23.1762 31.6731 23.0869 31.5781C22.9975 31.4831 22.8938 31.4053 22.8564 31.4053C22.7642 31.4053 22.6228 31.2587 22.6228 31.1631C22.6228 31.1203 22.5706 31.048 22.5068 31.0024C22.443 30.9567 22.3908 30.8733 22.3908 30.8169C22.3908 30.7606 22.3647 30.7145 22.3328 30.7145C22.3009 30.7145 22.2748 30.6627 22.2748 30.5994C22.2748 30.536 22.2487 30.4842 22.2168 30.4842C22.1848 30.4842 22.1587 30.4065 22.1587 30.3115C22.1587 30.2165 22.1326 30.1388 22.1007 30.1388C22.0659 30.1388 22.0427 29.9085 22.0427 29.5631C22.0427 29.2177 22.0659 28.9874 22.1007 28.9874C22.1326 28.9874 22.1587 28.9097 22.1587 28.8147C22.1587 28.7197 22.1848 28.642 22.2168 28.642C22.2487 28.642 22.2748 28.5902 22.2748 28.5268C22.2748 28.4635 22.3009 28.4117 22.3328 28.4117C22.3647 28.4117 22.3908 28.3656 22.3908 28.3093C22.3908 28.2529 22.443 28.1695 22.5068 28.1238C22.5706 28.0782 22.6228 28.0059 22.6228 27.9631C22.6228 27.8675 22.7642 27.7208 22.8564 27.7208C22.8938 27.7208 22.9975 27.6431 23.0869 27.5481C23.1762 27.4531 23.2912 27.3754 23.3421 27.3754C23.3932 27.3754 23.4349 27.3495 23.4349 27.3178C23.4349 27.2862 23.5132 27.2603 23.6089 27.2603C23.7046 27.2603 23.7829 27.2344 23.7829 27.2027C23.7829 27.171 23.8874 27.1451 24.015 27.1451C24.1426 27.1451 24.247 27.1192 24.247 27.0876C24.247 27.0559 24.3775 27.03 24.537 27.03C24.6966 27.03 24.8271 27.0559 24.8271 27.0876ZM33.6442 27.0876C33.6442 27.1192 33.7486 27.1451 33.8762 27.1451C34.0038 27.1451 34.1082 27.171 34.1082 27.2027C34.1082 27.2344 34.1604 27.2603 34.2242 27.2603C34.288 27.2603 34.3403 27.2862 34.3403 27.3178C34.3403 27.3495 34.3925 27.3754 34.4563 27.3754C34.5201 27.3754 34.5723 27.4013 34.5723 27.433C34.5723 27.4646 34.612 27.4906 34.6606 27.4906C34.7754 27.4906 35.3844 28.0949 35.3844 28.2089C35.3844 28.2571 35.4105 28.2965 35.4424 28.2965C35.4743 28.2965 35.5004 28.3484 35.5004 28.4117C35.5004 28.475 35.5265 28.5268 35.5584 28.5268C35.5903 28.5268 35.6164 28.6045 35.6164 28.6995C35.6164 28.7945 35.6425 28.8722 35.6744 28.8722C35.7063 28.8722 35.7324 29.0018 35.7324 29.1601C35.7324 29.3184 35.7585 29.448 35.7904 29.448C35.8223 29.448 35.8484 29.4998 35.8484 29.5631C35.8484 29.6264 35.8223 29.6782 35.7904 29.6782C35.7585 29.6782 35.7324 29.8078 35.7324 29.9661C35.7324 30.1244 35.7063 30.2539 35.6744 30.2539C35.6425 30.2539 35.6164 30.3317 35.6164 30.4267C35.6164 30.5216 35.5903 30.5994 35.5584 30.5994C35.5265 30.5994 35.5004 30.6455 35.5004 30.7018C35.5004 30.7581 35.4482 30.8416 35.3844 30.8872C35.3206 30.9329 35.2684 31.004 35.2684 31.0454C35.2684 31.1502 34.7688 31.6356 34.6608 31.6356C34.6121 31.6356 34.5723 31.6615 34.5723 31.6932C34.5723 31.7249 34.5201 31.7508 34.4563 31.7508C34.3925 31.7508 34.3403 31.7767 34.3403 31.8083C34.3403 31.84 34.288 31.8659 34.2242 31.8659C34.1604 31.8659 34.1082 31.8918 34.1082 31.9235C34.1082 31.9551 33.9777 31.9811 33.8182 31.9811C33.6587 31.9811 33.5282 32.007 33.5282 32.0386C33.5282 32.0703 33.3976 32.0962 33.2381 32.0962C33.0786 32.0962 32.9481 32.0703 32.9481 32.0386C32.9481 32.007 32.8437 31.9811 32.716 31.9811C32.5884 31.9811 32.484 31.9551 32.484 31.9235C32.484 31.8918 32.4115 31.8659 32.3228 31.8659C32.2282 31.8659 32.1271 31.8184 32.078 31.7508C32.032 31.6874 31.9604 31.6356 31.9189 31.6356C31.8206 31.6356 31.2079 31.0275 31.2079 30.9299C31.2079 30.8888 31.1557 30.8177 31.0918 30.7721C31.0237 30.7233 30.9758 30.623 30.9758 30.5291C30.9758 30.4411 30.9497 30.3691 30.9178 30.3691C30.8859 30.3691 30.8598 30.2914 30.8598 30.1964C30.8598 30.1014 30.8337 30.0237 30.8018 30.0237C30.768 30.0237 30.7438 29.8318 30.7438 29.5631C30.7438 29.2944 30.768 29.1025 30.8018 29.1025C30.8337 29.1025 30.8598 29.0248 30.8598 28.9298C30.8598 28.8348 30.8859 28.7571 30.9178 28.7571C30.9497 28.7571 30.9758 28.6851 30.9758 28.5971C30.9758 28.5032 31.0237 28.4029 31.0918 28.3541C31.1557 28.3085 31.2079 28.2374 31.2079 28.1963C31.2079 28.0914 31.8242 27.4906 31.9317 27.4906C31.9802 27.4906 32.02 27.4646 32.02 27.433C32.02 27.4013 32.0722 27.3754 32.136 27.3754C32.1998 27.3754 32.252 27.3495 32.252 27.3178C32.252 27.2862 32.3042 27.2603 32.368 27.2603C32.4318 27.2603 32.484 27.2344 32.484 27.2027C32.484 27.171 32.5884 27.1451 32.716 27.1451C32.8437 27.1451 32.9481 27.1192 32.9481 27.0876C32.9481 27.0556 33.1028 27.03 33.2961 27.03C33.4895 27.03 33.6442 27.0556 33.6442 27.0876ZM42.3452 27.0876C42.3452 27.1192 42.4497 27.1451 42.5773 27.1451C42.7049 27.1451 42.8093 27.171 42.8093 27.2027C42.8093 27.2344 42.8819 27.2603 42.9705 27.2603C43.0652 27.2603 43.1662 27.3078 43.2153 27.3754C43.2613 27.4387 43.3329 27.4906 43.3742 27.4906C43.4798 27.4906 44.2015 28.2179 44.2015 28.3242C44.2015 28.3724 44.2276 28.4117 44.2595 28.4117C44.2914 28.4117 44.3175 28.4894 44.3175 28.5844C44.3175 28.6794 44.3436 28.7571 44.3755 28.7571C44.4074 28.7571 44.4335 28.8348 44.4335 28.9298C44.4335 29.0248 44.4596 29.1025 44.4915 29.1025C44.5253 29.1025 44.5495 29.2944 44.5495 29.5631C44.5495 29.8318 44.5253 30.0237 44.4915 30.0237C44.4596 30.0237 44.4335 30.1014 44.4335 30.1964C44.4335 30.2914 44.4074 30.3691 44.3755 30.3691C44.3436 30.3691 44.3175 30.4468 44.3175 30.5418C44.3175 30.6368 44.2914 30.7145 44.2595 30.7145C44.2276 30.7145 44.2015 30.7538 44.2015 30.802C44.2015 30.9083 43.4798 31.6356 43.3742 31.6356C43.3329 31.6356 43.2613 31.6874 43.2153 31.7508C43.1662 31.8184 43.0652 31.8659 42.9705 31.8659C42.8819 31.8659 42.8093 31.8918 42.8093 31.9235C42.8093 31.9551 42.7049 31.9811 42.5773 31.9811C42.4497 31.9811 42.3452 32.007 42.3452 32.0386C42.3452 32.0703 42.2147 32.0962 42.0552 32.0962C41.8957 32.0962 41.7652 32.0703 41.7652 32.0386C41.7652 32.007 41.6347 31.9811 41.4751 31.9811C41.3156 31.9811 41.1851 31.9551 41.1851 31.9235C41.1851 31.8918 41.1329 31.8659 41.0691 31.8659C41.0053 31.8659 40.9531 31.84 40.9531 31.8083C40.9531 31.7767 40.9066 31.7508 40.8499 31.7508C40.7931 31.7508 40.709 31.699 40.663 31.6356C40.617 31.5723 40.5452 31.5205 40.5033 31.5205C40.4043 31.5205 40.025 31.144 40.025 31.0458C40.025 31.0042 39.9727 30.9329 39.9089 30.8872C39.8451 30.8416 39.7929 30.7581 39.7929 30.7018C39.7929 30.6455 39.7668 30.5994 39.7349 30.5994C39.703 30.5994 39.6769 30.5216 39.6769 30.4267C39.6769 30.3317 39.6508 30.2539 39.6189 30.2539C39.587 30.2539 39.5609 30.1266 39.5609 29.9709C39.5609 29.8007 39.532 29.6744 39.4884 29.6542C39.4304 29.6274 39.4304 29.6139 39.4884 29.5871C39.5344 29.5657 39.5609 29.4291 39.5609 29.2129C39.5609 29.0242 39.5868 28.8722 39.6189 28.8722C39.6508 28.8722 39.6769 28.7945 39.6769 28.6995C39.6769 28.6045 39.703 28.5268 39.7349 28.5268C39.7668 28.5268 39.7929 28.4807 39.7929 28.4244C39.7929 28.368 39.8451 28.2846 39.9089 28.239C39.9727 28.1933 40.025 28.1222 40.025 28.0808C40.025 27.976 40.5246 27.4906 40.6325 27.4906C40.6812 27.4906 40.721 27.4646 40.721 27.433C40.721 27.4013 40.7732 27.3754 40.8371 27.3754C40.9009 27.3754 40.9531 27.3495 40.9531 27.3178C40.9531 27.2862 41.0053 27.2603 41.0691 27.2603C41.1329 27.2603 41.1851 27.2344 41.1851 27.2027C41.1851 27.171 41.2895 27.1451 41.4171 27.1451C41.5447 27.1451 41.6492 27.1192 41.6492 27.0876C41.6492 27.0556 41.8039 27.03 41.9972 27.03C42.1905 27.03 42.3452 27.0556 42.3452 27.0876Z"/>
</mask>
<path fill-rule="evenodd" clip-rule="evenodd" d="M20.4185 0.835403C20.4185 0.867066 20.3141 0.892973 20.1865 0.892973C20.0589 0.892973 19.9545 0.91888 19.9545 0.950544C19.9545 0.982207 19.9023 1.00811 19.8385 1.00811C19.7746 1.00811 19.7224 1.03402 19.7224 1.06568C19.7224 1.09735 19.6807 1.12326 19.6297 1.12326C19.5787 1.12326 19.4638 1.20098 19.3744 1.29597C19.285 1.39096 19.1701 1.46868 19.1191 1.46868C19.0681 1.46868 19.0264 1.51479 19.0264 1.5711C19.0264 1.62746 18.9741 1.71088 18.9103 1.75653C18.8465 1.80218 18.7943 1.8799 18.7943 1.92924C18.7943 1.97858 18.7421 2.0563 18.6783 2.10195C18.6102 2.15072 18.5623 2.251 18.5623 2.34496C18.5623 2.43293 18.5362 2.50495 18.5043 2.50495C18.4671 2.50495 18.4463 3.07242 18.4463 4.09222C18.4463 5.39113 18.4312 5.69447 18.3634 5.76177C18.294 5.83068 17.8507 5.84404 15.6371 5.84404C13.9134 5.84404 12.9936 5.86407 12.9936 5.90161C12.9936 5.93327 12.9414 5.95918 12.8776 5.95918C12.8138 5.95918 12.7616 5.98509 12.7616 6.01675C12.7616 6.04841 12.7094 6.07432 12.6456 6.07432C12.5818 6.07432 12.5296 6.10023 12.5296 6.13189C12.5296 6.16355 12.4773 6.18946 12.4135 6.18946C12.3497 6.18946 12.2975 6.21537 12.2975 6.24703C12.2975 6.2787 12.2578 6.3046 12.2092 6.3046C12.1017 6.3046 11.4854 6.90547 11.4854 7.0103C11.4854 7.05146 11.4332 7.12251 11.3694 7.16816C11.3056 7.21381 11.2534 7.29723 11.2534 7.35359C11.2534 7.4099 11.2273 7.45601 11.1954 7.45601C11.1635 7.45601 11.1374 7.53373 11.1374 7.62872C11.1374 7.72372 11.1113 7.80144 11.0794 7.80144C11.0471 7.80144 11.0214 7.95498 11.0214 8.14686C11.0214 8.33874 10.9956 8.49228 10.9634 8.49228C10.9251 8.49228 10.9053 10.2002 10.9053 13.5009C10.9053 16.8016 10.9251 18.5096 10.9634 18.5096C10.9953 18.5096 11.0214 18.6391 11.0214 18.7974C11.0214 18.9557 11.0475 19.0853 11.0794 19.0853C11.1113 19.0853 11.1374 19.163 11.1374 19.258C11.1374 19.353 11.1635 19.4307 11.1954 19.4307C11.2273 19.4307 11.2534 19.4825 11.2534 19.5458C11.2534 19.6091 11.2795 19.661 11.3114 19.661C11.3433 19.661 11.3694 19.7071 11.3694 19.7634C11.3694 19.8197 11.4216 19.9032 11.4854 19.9488C11.5492 19.9945 11.6014 20.0661 11.6014 20.1081C11.6014 20.2015 11.8611 20.467 11.9526 20.467C11.9891 20.467 12.0921 20.5447 12.1815 20.6397C12.2709 20.7347 12.3858 20.8124 12.4368 20.8124C12.4878 20.8124 12.5296 20.8383 12.5296 20.8699C12.5296 20.9016 12.6079 20.9275 12.7036 20.9275C12.7993 20.9275 12.8776 20.9534 12.8776 20.9851C12.8776 21.0167 12.9559 21.0427 13.0516 21.0427C13.1473 21.0427 13.2256 21.0686 13.2256 21.1002C13.2256 21.1384 17.0348 21.1578 24.537 21.1578C32.0393 21.1578 35.8484 21.1384 35.8484 21.1002C35.8484 21.0686 35.9267 21.0427 36.0225 21.0427C36.1182 21.0427 36.1965 21.0167 36.1965 20.9851C36.1965 20.9534 36.2748 20.9275 36.3705 20.9275C36.4662 20.9275 36.5445 20.9016 36.5445 20.8699C36.5445 20.8383 36.591 20.8124 36.6477 20.8124C36.7045 20.8124 36.7886 20.7606 36.8346 20.6972C36.8806 20.6339 36.9524 20.5821 36.9943 20.5821C37.0875 20.5821 37.4726 20.2082 37.4726 20.1178C37.4726 20.0819 37.5509 19.98 37.6467 19.8912C37.7424 19.8025 37.8207 19.6885 37.8207 19.6379C37.8207 19.5872 37.8468 19.5458 37.8787 19.5458C37.9106 19.5458 37.9367 19.4681 37.9367 19.3731C37.9367 19.2781 37.9628 19.2004 37.9947 19.2004C38.0266 19.2004 38.0527 19.0968 38.0527 18.9701C38.0527 18.8435 38.0788 18.7398 38.1107 18.7398C38.1489 18.7398 38.1687 16.9551 38.1687 13.5009C38.1687 10.0467 38.1489 8.262 38.1107 8.262C38.0788 8.262 38.0527 8.15837 38.0527 8.03172C38.0527 7.90506 38.0266 7.80144 37.9947 7.80144C37.9628 7.80144 37.9367 7.72372 37.9367 7.62872C37.9367 7.53373 37.9106 7.45601 37.8787 7.45601C37.8468 7.45601 37.8207 7.4042 37.8207 7.34087C37.8207 7.27754 37.7946 7.22573 37.7627 7.22573C37.7308 7.22573 37.7047 7.18641 37.7047 7.13828C37.7047 7.03195 36.983 6.3046 36.8774 6.3046C36.8361 6.3046 36.7645 6.25279 36.7185 6.18946C36.6694 6.12187 36.5684 6.07432 36.4737 6.07432C36.3851 6.07432 36.3125 6.04841 36.3125 6.01675C36.3125 5.98509 36.2603 5.95918 36.1965 5.95918C36.1327 5.95918 36.0805 5.93327 36.0805 5.90161C36.0805 5.86407 35.1606 5.84404 33.437 5.84404C31.2234 5.84404 30.7801 5.83068 30.7107 5.76177C30.6429 5.69447 30.6278 5.39113 30.6278 4.09222C30.6278 3.07242 30.607 2.50495 30.5698 2.50495C30.5379 2.50495 30.5118 2.43293 30.5118 2.34496C30.5118 2.251 30.4639 2.15072 30.3958 2.10195C30.332 2.0563 30.2797 1.97288 30.2797 1.91652C30.2797 1.86022 30.2536 1.8141 30.2217 1.8141C30.1898 1.8141 30.1637 1.7734 30.1637 1.72366C30.1637 1.61744 30.0274 1.46868 29.9301 1.46868C29.8928 1.46868 29.7891 1.39096 29.6997 1.29597C29.6103 1.20098 29.4954 1.12326 29.4444 1.12326C29.3933 1.12326 29.3516 1.09735 29.3516 1.06568C29.3516 1.03402 29.2994 1.00811 29.2356 1.00811C29.1718 1.00811 29.1196 0.982207 29.1196 0.950544C29.1196 0.91888 29.0413 0.892973 28.9456 0.892973C28.8499 0.892973 28.7716 0.867066 28.7716 0.835403C28.7716 0.797579 27.3407 0.777832 24.595 0.777832C21.8494 0.777832 20.4185 0.797579 20.4185 0.835403ZM28.6865 2.70454L28.8876 2.90408V4.37409V5.84404H24.537H20.1865V4.37438V2.90466L20.375 2.70875L20.5635 2.51283L24.5245 2.50892L28.4854 2.50495L28.6865 2.70454ZM2.78434 23.2879C2.78434 23.3199 2.62964 23.3455 2.4363 23.3455C2.24296 23.3455 2.08826 23.371 2.08826 23.403C2.08826 23.4347 2.03605 23.4606 1.97224 23.4606C1.90844 23.4606 1.85623 23.4865 1.85623 23.5182C1.85623 23.5499 1.80402 23.5758 1.74022 23.5758C1.67641 23.5758 1.6242 23.6017 1.6242 23.6333C1.6242 23.665 1.57774 23.6909 1.52101 23.6909C1.46422 23.6909 1.38016 23.7427 1.33417 23.806C1.28817 23.8694 1.21629 23.9212 1.17441 23.9212C1.07545 23.9212 0.696086 24.2977 0.696086 24.3959C0.696086 24.4375 0.64388 24.5088 0.580072 24.5545C0.516264 24.6001 0.464057 24.6835 0.464057 24.7399C0.464057 24.7962 0.437954 24.8423 0.40605 24.8423C0.374146 24.8423 0.348043 24.8941 0.348043 24.9575C0.348043 25.0208 0.32194 25.0726 0.290036 25.0726C0.258132 25.0726 0.232029 25.1244 0.232029 25.1877C0.232029 25.2511 0.205925 25.3029 0.174022 25.3029C0.14177 25.3029 0.116014 25.4564 0.116014 25.6483C0.116014 25.8402 0.0902592 25.9937 0.0580072 25.9937C0.0199545 25.9937 0 27.2219 0 29.5631C0 31.9043 0.0199545 33.1325 0.0580072 33.1325C0.0902592 33.1325 0.116014 33.286 0.116014 33.4779C0.116014 33.6698 0.14177 33.8233 0.174022 33.8233C0.205925 33.8233 0.232029 33.8751 0.232029 33.9385C0.232029 34.0018 0.258132 34.0536 0.290036 34.0536C0.32194 34.0536 0.348043 34.1054 0.348043 34.1687C0.348043 34.2321 0.374146 34.2839 0.40605 34.2839C0.437954 34.2839 0.464057 34.33 0.464057 34.3863C0.464057 34.4427 0.516264 34.5261 0.580072 34.5717C0.64388 34.6174 0.696086 34.6887 0.696086 34.7303C0.696086 34.8285 1.07545 35.205 1.17441 35.205C1.21629 35.205 1.28817 35.2568 1.33417 35.3201C1.38016 35.3835 1.46422 35.4353 1.52101 35.4353C1.57774 35.4353 1.6242 35.4612 1.6242 35.4929C1.6242 35.5245 1.67641 35.5504 1.74022 35.5504C1.80402 35.5504 1.85623 35.5763 1.85623 35.608C1.85623 35.6397 1.93454 35.6656 2.03025 35.6656C2.12596 35.6656 2.20427 35.6915 2.20427 35.7231C2.20427 35.7548 2.33479 35.7807 2.49431 35.7807C2.65383 35.7807 2.78434 35.8066 2.78434 35.8383C2.78434 35.8758 3.71246 35.8958 5.45267 35.8958H8.12101V38.7744V41.6529H7.65695C7.38623 41.6529 7.19289 41.6769 7.19289 41.7105C7.19289 41.7421 7.15287 41.768 7.10397 41.768C7.05501 41.768 6.92449 41.8579 6.81393 41.9676L6.61282 42.1672V43.4069C6.61282 44.195 6.63393 44.6466 6.67083 44.6466C6.70273 44.6466 6.72883 44.6866 6.72883 44.7355C6.72883 44.8754 6.99845 45.1071 7.16128 45.1071C7.24249 45.1071 7.3089 45.133 7.3089 45.1647C7.3089 45.2025 8.72039 45.2223 11.4274 45.2223C14.1344 45.2223 15.5459 45.2025 15.5459 45.1647C15.5459 45.133 15.6121 45.1071 15.6929 45.1071C15.7832 45.1071 15.9173 45.0302 16.0409 44.9075L16.242 44.708V43.4376V42.1672L16.0409 41.9676C15.9303 41.8579 15.7998 41.768 15.7509 41.768C15.702 41.768 15.6619 41.7421 15.6619 41.7105C15.6619 41.6769 15.4686 41.6529 15.1979 41.6529H14.7338V38.7744V35.8958H24.537H34.3403V38.7744V41.6529H33.8762C33.6055 41.6529 33.4121 41.6769 33.4121 41.7105C33.4121 41.7421 33.3721 41.768 33.3232 41.768C33.2743 41.768 33.1437 41.8579 33.0332 41.9676L32.8321 42.1672V43.4376V44.708L33.0332 44.9075C33.1568 45.0302 33.2908 45.1071 33.3812 45.1071C33.462 45.1071 33.5282 45.133 33.5282 45.1647C33.5282 45.2025 34.9396 45.2223 37.6467 45.2223C40.3537 45.2223 41.7652 45.2025 41.7652 45.1647C41.7652 45.133 41.8313 45.1071 41.9121 45.1071C42.0025 45.1071 42.1365 45.0302 42.2601 44.9075L42.4613 44.708V43.4376V42.1672L42.2601 41.9676C42.1496 41.8579 42.0191 41.768 41.9701 41.768C41.9212 41.768 41.8812 41.7421 41.8812 41.7105C41.8812 41.6769 41.6878 41.6529 41.4171 41.6529H40.9531V38.7744V35.8958H43.6794C45.4583 35.8958 46.4057 35.8758 46.4057 35.8383C46.4057 35.8066 46.5102 35.7807 46.6378 35.7807C46.7654 35.7807 46.8698 35.7548 46.8698 35.7231C46.8698 35.6915 46.9481 35.6656 47.0438 35.6656C47.1395 35.6656 47.2178 35.6397 47.2178 35.608C47.2178 35.5763 47.2904 35.5504 47.379 35.5504C47.4737 35.5504 47.5748 35.5029 47.6239 35.4353C47.6699 35.372 47.7415 35.3201 47.783 35.3201C47.8813 35.3201 48.494 34.712 48.494 34.6144C48.494 34.5733 48.5462 34.5022 48.61 34.4566C48.6738 34.4109 48.726 34.3275 48.726 34.2712C48.726 34.2148 48.7521 34.1687 48.784 34.1687C48.8159 34.1687 48.842 34.091 48.842 33.996C48.842 33.901 48.8681 33.8233 48.9001 33.8233C48.932 33.8233 48.9581 33.7197 48.9581 33.593C48.9581 33.4664 48.9842 33.3627 49.0161 33.3627C49.0542 33.3627 49.0741 32.0578 49.0741 29.5631C49.0741 27.0684 49.0542 25.7634 49.0161 25.7634C48.9842 25.7634 48.9581 25.6598 48.9581 25.5332C48.9581 25.4065 48.932 25.3029 48.9001 25.3029C48.8681 25.3029 48.842 25.2252 48.842 25.1302C48.842 25.0352 48.8159 24.9575 48.784 24.9575C48.7521 24.9575 48.726 24.9113 48.726 24.855C48.726 24.7987 48.6738 24.7153 48.61 24.6696C48.5462 24.6239 48.494 24.5529 48.494 24.5117C48.494 24.4069 47.8777 23.806 47.7702 23.806C47.7216 23.806 47.6819 23.7801 47.6819 23.7485C47.6819 23.7168 47.6297 23.6909 47.5659 23.6909C47.5021 23.6909 47.4499 23.665 47.4499 23.6333C47.4499 23.6017 47.3977 23.5758 47.3339 23.5758C47.2701 23.5758 47.2178 23.5499 47.2178 23.5182C47.2178 23.4865 47.1656 23.4606 47.1018 23.4606C47.038 23.4606 46.9858 23.4347 46.9858 23.403C46.9858 23.371 46.8311 23.3455 46.6378 23.3455C46.4444 23.3455 46.2897 23.3199 46.2897 23.2879C46.2897 23.2496 39.0001 23.2303 24.537 23.2303C10.0739 23.2303 2.78434 23.2496 2.78434 23.2879ZM7.42492 27.0876C7.42492 27.1192 7.52933 27.1451 7.65695 27.1451C7.78456 27.1451 7.88898 27.171 7.88898 27.2027C7.88898 27.2344 7.94118 27.2603 8.00499 27.2603C8.0688 27.2603 8.12101 27.2862 8.12101 27.3178C8.12101 27.3495 8.17321 27.3754 8.23702 27.3754C8.30083 27.3754 8.35303 27.4013 8.35303 27.433C8.35303 27.4646 8.39277 27.4906 8.44132 27.4906C8.55618 27.4906 9.16513 28.0949 9.16513 28.2089C9.16513 28.2571 9.19124 28.2965 9.22314 28.2965C9.25505 28.2965 9.28115 28.3484 9.28115 28.4117C9.28115 28.475 9.30725 28.5268 9.33916 28.5268C9.37106 28.5268 9.39716 28.6045 9.39716 28.6995C9.39716 28.7945 9.42327 28.8722 9.45517 28.8722C9.48742 28.8722 9.51318 29.0258 9.51318 29.2177C9.51318 29.4096 9.53893 29.5631 9.57118 29.5631C9.60309 29.5631 9.62919 29.6149 9.62919 29.6782C9.62919 29.7416 9.60309 29.7934 9.57118 29.7934C9.53928 29.7934 9.51318 29.897 9.51318 30.0237C9.51318 30.1503 9.48707 30.2539 9.45517 30.2539C9.42327 30.2539 9.39716 30.3317 9.39716 30.4267C9.39716 30.5216 9.37106 30.5994 9.33916 30.5994C9.30725 30.5994 9.28115 30.6455 9.28115 30.7018C9.28115 30.7581 9.22894 30.8416 9.16513 30.8872C9.10133 30.9329 9.04912 31.004 9.04912 31.0454C9.04912 31.1502 8.5495 31.6356 8.44155 31.6356C8.39289 31.6356 8.35303 31.6615 8.35303 31.6932C8.35303 31.7249 8.30083 31.7508 8.23702 31.7508C8.17321 31.7508 8.12101 31.7767 8.12101 31.8083C8.12101 31.84 8.0688 31.8659 8.00499 31.8659C7.94118 31.8659 7.88898 31.8918 7.88898 31.9235C7.88898 31.9551 7.75846 31.9811 7.59894 31.9811C7.43942 31.9811 7.3089 32.007 7.3089 32.0386C7.3089 32.0703 7.17839 32.0962 7.01887 32.0962C6.85935 32.0962 6.72883 32.0703 6.72883 32.0386C6.72883 32.007 6.62442 31.9811 6.4968 31.9811C6.36919 31.9811 6.26478 31.9551 6.26478 31.9235C6.26478 31.8918 6.19221 31.8659 6.10357 31.8659C6.00891 31.8659 5.90786 31.8184 5.85873 31.7508C5.81273 31.6874 5.7412 31.6356 5.69984 31.6356C5.59427 31.6356 4.8726 30.9083 4.8726 30.802C4.8726 30.7538 4.8465 30.7145 4.8146 30.7145C4.78269 30.7145 4.75659 30.6368 4.75659 30.5418C4.75659 30.4468 4.73049 30.3691 4.69858 30.3691C4.66668 30.3691 4.64057 30.2914 4.64057 30.1964C4.64057 30.1014 4.61447 30.0237 4.58257 30.0237C4.54875 30.0237 4.52456 29.8318 4.52456 29.5631C4.52456 29.2944 4.54875 29.1025 4.58257 29.1025C4.61447 29.1025 4.64057 29.0248 4.64057 28.9298C4.64057 28.8348 4.66668 28.7571 4.69858 28.7571C4.73049 28.7571 4.75659 28.6794 4.75659 28.5844C4.75659 28.4894 4.78269 28.4117 4.8146 28.4117C4.8465 28.4117 4.8726 28.3724 4.8726 28.3242C4.8726 28.2104 5.59793 27.4906 5.71261 27.4906C5.7611 27.4906 5.80072 27.4646 5.80072 27.433C5.80072 27.4013 5.85292 27.3754 5.91673 27.3754C5.98054 27.3754 6.03275 27.3495 6.03275 27.3178C6.03275 27.2862 6.08495 27.2603 6.14876 27.2603C6.21257 27.2603 6.26478 27.2344 6.26478 27.2027C6.26478 27.171 6.36919 27.1451 6.4968 27.1451C6.62442 27.1451 6.72883 27.1192 6.72883 27.0876C6.72883 27.0556 6.88354 27.03 7.07688 27.03C7.27021 27.03 7.42492 27.0556 7.42492 27.0876ZM16.126 27.0876C16.126 27.1192 16.2304 27.1451 16.358 27.1451C16.4856 27.1451 16.5901 27.171 16.5901 27.2027C16.5901 27.2344 16.6423 27.2603 16.7061 27.2603C16.7699 27.2603 16.8221 27.2862 16.8221 27.3178C16.8221 27.3495 16.8743 27.3754 16.9381 27.3754C17.0019 27.3754 17.0541 27.4013 17.0541 27.433C17.0541 27.4646 17.0938 27.4906 17.1424 27.4906C17.2499 27.4906 17.8662 28.0914 17.8662 28.1963C17.8662 28.2374 17.9184 28.3085 17.9822 28.3541C18.046 28.3998 18.0982 28.4832 18.0982 28.5395C18.0982 28.5959 18.1243 28.642 18.1562 28.642C18.1882 28.642 18.2143 28.7456 18.2143 28.8722C18.2143 28.9989 18.2404 29.1025 18.2723 29.1025C18.3061 29.1025 18.3303 29.2944 18.3303 29.5631C18.3303 29.8318 18.3061 30.0237 18.2723 30.0237C18.2404 30.0237 18.2143 30.1014 18.2143 30.1964C18.2143 30.2914 18.1882 30.3691 18.1562 30.3691C18.1243 30.3691 18.0982 30.4411 18.0982 30.5291C18.0982 30.623 18.0503 30.7233 17.9822 30.7721C17.9184 30.8177 17.8662 30.8887 17.8662 30.9298C17.8662 31.0345 17.1333 31.7508 17.0262 31.7508C16.9777 31.7508 16.9381 31.7767 16.9381 31.8083C16.9381 31.84 16.8598 31.8659 16.7641 31.8659C16.6684 31.8659 16.5901 31.8918 16.5901 31.9235C16.5901 31.9551 16.4856 31.9811 16.358 31.9811C16.2304 31.9811 16.126 32.007 16.126 32.0386C16.126 32.0703 15.9955 32.0962 15.836 32.0962C15.6764 32.0962 15.5459 32.0703 15.5459 32.0386C15.5459 32.007 15.4154 31.9811 15.2559 31.9811C15.0964 31.9811 14.9659 31.9551 14.9659 31.9235C14.9659 31.8918 14.9136 31.8659 14.8498 31.8659C14.786 31.8659 14.7338 31.84 14.7338 31.8083C14.7338 31.7767 14.6816 31.7508 14.6178 31.7508C14.554 31.7508 14.5018 31.7249 14.5018 31.6932C14.5018 31.6615 14.4619 31.6356 14.4133 31.6356C14.3053 31.6356 13.8057 31.1502 13.8057 31.0454C13.8057 31.004 13.7535 30.9329 13.6897 30.8872C13.6259 30.8416 13.5737 30.7581 13.5737 30.7018C13.5737 30.6455 13.5476 30.5994 13.5157 30.5994C13.4838 30.5994 13.4577 30.5216 13.4577 30.4267C13.4577 30.3317 13.4316 30.2539 13.3997 30.2539C13.3642 30.2539 13.3417 29.9853 13.3417 29.5631C13.3417 29.1409 13.3642 28.8722 13.3997 28.8722C13.4316 28.8722 13.4577 28.7945 13.4577 28.6995C13.4577 28.6045 13.4838 28.5268 13.5157 28.5268C13.5476 28.5268 13.5737 28.475 13.5737 28.4117C13.5737 28.3484 13.5998 28.2965 13.6317 28.2965C13.6636 28.2965 13.6897 28.2571 13.6897 28.2089C13.6897 28.0949 14.2987 27.4906 14.4135 27.4906C14.4621 27.4906 14.5018 27.4646 14.5018 27.433C14.5018 27.4013 14.554 27.3754 14.6178 27.3754C14.6816 27.3754 14.7338 27.3495 14.7338 27.3178C14.7338 27.2862 14.786 27.2603 14.8498 27.2603C14.9136 27.2603 14.9659 27.2344 14.9659 27.2027C14.9659 27.171 15.0703 27.1451 15.1979 27.1451C15.3255 27.1451 15.4299 27.1192 15.4299 27.0876C15.4299 27.0556 15.5846 27.03 15.778 27.03C15.9713 27.03 16.126 27.0556 16.126 27.0876ZM24.8271 27.0876C24.8271 27.1192 24.9576 27.1451 25.1171 27.1451C25.2766 27.1451 25.4071 27.171 25.4071 27.2027C25.4071 27.2344 25.4594 27.2603 25.5232 27.2603C25.587 27.2603 25.6392 27.2862 25.6392 27.3178C25.6392 27.3495 25.6809 27.3754 25.7319 27.3754C25.7829 27.3754 25.8978 27.4531 25.9872 27.5481C26.0766 27.6431 26.1803 27.7208 26.2177 27.7208C26.3099 27.7208 26.4513 27.8675 26.4513 27.9631C26.4513 28.0059 26.5035 28.0782 26.5673 28.1238C26.6311 28.1695 26.6833 28.2529 26.6833 28.3093C26.6833 28.3656 26.7094 28.4117 26.7413 28.4117C26.7732 28.4117 26.7993 28.4635 26.7993 28.5268C26.7993 28.5902 26.8254 28.642 26.8573 28.642C26.8892 28.642 26.9153 28.7197 26.9153 28.8147C26.9153 28.9097 26.9414 28.9874 26.9733 28.9874C27.0081 28.9874 27.0313 29.2177 27.0313 29.5631C27.0313 29.9085 27.0081 30.1388 26.9733 30.1388C26.9414 30.1388 26.9153 30.2165 26.9153 30.3115C26.9153 30.4065 26.8892 30.4842 26.8573 30.4842C26.8254 30.4842 26.7993 30.536 26.7993 30.5994C26.7993 30.6627 26.7732 30.7145 26.7413 30.7145C26.7094 30.7145 26.6833 30.7606 26.6833 30.8169C26.6833 30.8733 26.6311 30.9567 26.5673 31.0024C26.5035 31.048 26.4513 31.1203 26.4513 31.1631C26.4513 31.2587 26.3099 31.4053 26.2177 31.4053C26.1803 31.4053 26.0766 31.4831 25.9872 31.5781C25.8978 31.6731 25.7829 31.7508 25.7319 31.7508C25.6809 31.7508 25.6392 31.7767 25.6392 31.8083C25.6392 31.84 25.5609 31.8659 25.4652 31.8659C25.3694 31.8659 25.2911 31.8918 25.2911 31.9235C25.2911 31.9551 25.1867 31.9811 25.0591 31.9811C24.9315 31.9811 24.8271 32.007 24.8271 32.0386C24.8271 32.0703 24.6966 32.0962 24.537 32.0962C24.3775 32.0962 24.247 32.0703 24.247 32.0386C24.247 32.007 24.1426 31.9811 24.015 31.9811C23.8874 31.9811 23.7829 31.9551 23.7829 31.9235C23.7829 31.8918 23.7046 31.8659 23.6089 31.8659C23.5132 31.8659 23.4349 31.84 23.4349 31.8083C23.4349 31.7767 23.3932 31.7508 23.3421 31.7508C23.2912 31.7508 23.1762 31.6731 23.0869 31.5781C22.9975 31.4831 22.8938 31.4053 22.8564 31.4053C22.7642 31.4053 22.6228 31.2587 22.6228 31.1631C22.6228 31.1203 22.5706 31.048 22.5068 31.0024C22.443 30.9567 22.3908 30.8733 22.3908 30.8169C22.3908 30.7606 22.3647 30.7145 22.3328 30.7145C22.3009 30.7145 22.2748 30.6627 22.2748 30.5994C22.2748 30.536 22.2487 30.4842 22.2168 30.4842C22.1848 30.4842 22.1587 30.4065 22.1587 30.3115C22.1587 30.2165 22.1326 30.1388 22.1007 30.1388C22.0659 30.1388 22.0427 29.9085 22.0427 29.5631C22.0427 29.2177 22.0659 28.9874 22.1007 28.9874C22.1326 28.9874 22.1587 28.9097 22.1587 28.8147C22.1587 28.7197 22.1848 28.642 22.2168 28.642C22.2487 28.642 22.2748 28.5902 22.2748 28.5268C22.2748 28.4635 22.3009 28.4117 22.3328 28.4117C22.3647 28.4117 22.3908 28.3656 22.3908 28.3093C22.3908 28.2529 22.443 28.1695 22.5068 28.1238C22.5706 28.0782 22.6228 28.0059 22.6228 27.9631C22.6228 27.8675 22.7642 27.7208 22.8564 27.7208C22.8938 27.7208 22.9975 27.6431 23.0869 27.5481C23.1762 27.4531 23.2912 27.3754 23.3421 27.3754C23.3932 27.3754 23.4349 27.3495 23.4349 27.3178C23.4349 27.2862 23.5132 27.2603 23.6089 27.2603C23.7046 27.2603 23.7829 27.2344 23.7829 27.2027C23.7829 27.171 23.8874 27.1451 24.015 27.1451C24.1426 27.1451 24.247 27.1192 24.247 27.0876C24.247 27.0559 24.3775 27.03 24.537 27.03C24.6966 27.03 24.8271 27.0559 24.8271 27.0876ZM33.6442 27.0876C33.6442 27.1192 33.7486 27.1451 33.8762 27.1451C34.0038 27.1451 34.1082 27.171 34.1082 27.2027C34.1082 27.2344 34.1604 27.2603 34.2242 27.2603C34.288 27.2603 34.3403 27.2862 34.3403 27.3178C34.3403 27.3495 34.3925 27.3754 34.4563 27.3754C34.5201 27.3754 34.5723 27.4013 34.5723 27.433C34.5723 27.4646 34.612 27.4906 34.6606 27.4906C34.7754 27.4906 35.3844 28.0949 35.3844 28.2089C35.3844 28.2571 35.4105 28.2965 35.4424 28.2965C35.4743 28.2965 35.5004 28.3484 35.5004 28.4117C35.5004 28.475 35.5265 28.5268 35.5584 28.5268C35.5903 28.5268 35.6164 28.6045 35.6164 28.6995C35.6164 28.7945 35.6425 28.8722 35.6744 28.8722C35.7063 28.8722 35.7324 29.0018 35.7324 29.1601C35.7324 29.3184 35.7585 29.448 35.7904 29.448C35.8223 29.448 35.8484 29.4998 35.8484 29.5631C35.8484 29.6264 35.8223 29.6782 35.7904 29.6782C35.7585 29.6782 35.7324 29.8078 35.7324 29.9661C35.7324 30.1244 35.7063 30.2539 35.6744 30.2539C35.6425 30.2539 35.6164 30.3317 35.6164 30.4267C35.6164 30.5216 35.5903 30.5994 35.5584 30.5994C35.5265 30.5994 35.5004 30.6455 35.5004 30.7018C35.5004 30.7581 35.4482 30.8416 35.3844 30.8872C35.3206 30.9329 35.2684 31.004 35.2684 31.0454C35.2684 31.1502 34.7688 31.6356 34.6608 31.6356C34.6121 31.6356 34.5723 31.6615 34.5723 31.6932C34.5723 31.7249 34.5201 31.7508 34.4563 31.7508C34.3925 31.7508 34.3403 31.7767 34.3403 31.8083C34.3403 31.84 34.288 31.8659 34.2242 31.8659C34.1604 31.8659 34.1082 31.8918 34.1082 31.9235C34.1082 31.9551 33.9777 31.9811 33.8182 31.9811C33.6587 31.9811 33.5282 32.007 33.5282 32.0386C33.5282 32.0703 33.3976 32.0962 33.2381 32.0962C33.0786 32.0962 32.9481 32.0703 32.9481 32.0386C32.9481 32.007 32.8437 31.9811 32.716 31.9811C32.5884 31.9811 32.484 31.9551 32.484 31.9235C32.484 31.8918 32.4115 31.8659 32.3228 31.8659C32.2282 31.8659 32.1271 31.8184 32.078 31.7508C32.032 31.6874 31.9604 31.6356 31.9189 31.6356C31.8206 31.6356 31.2079 31.0275 31.2079 30.9299C31.2079 30.8888 31.1557 30.8177 31.0918 30.7721C31.0237 30.7233 30.9758 30.623 30.9758 30.5291C30.9758 30.4411 30.9497 30.3691 30.9178 30.3691C30.8859 30.3691 30.8598 30.2914 30.8598 30.1964C30.8598 30.1014 30.8337 30.0237 30.8018 30.0237C30.768 30.0237 30.7438 29.8318 30.7438 29.5631C30.7438 29.2944 30.768 29.1025 30.8018 29.1025C30.8337 29.1025 30.8598 29.0248 30.8598 28.9298C30.8598 28.8348 30.8859 28.7571 30.9178 28.7571C30.9497 28.7571 30.9758 28.6851 30.9758 28.5971C30.9758 28.5032 31.0237 28.4029 31.0918 28.3541C31.1557 28.3085 31.2079 28.2374 31.2079 28.1963C31.2079 28.0914 31.8242 27.4906 31.9317 27.4906C31.9802 27.4906 32.02 27.4646 32.02 27.433C32.02 27.4013 32.0722 27.3754 32.136 27.3754C32.1998 27.3754 32.252 27.3495 32.252 27.3178C32.252 27.2862 32.3042 27.2603 32.368 27.2603C32.4318 27.2603 32.484 27.2344 32.484 27.2027C32.484 27.171 32.5884 27.1451 32.716 27.1451C32.8437 27.1451 32.9481 27.1192 32.9481 27.0876C32.9481 27.0556 33.1028 27.03 33.2961 27.03C33.4895 27.03 33.6442 27.0556 33.6442 27.0876ZM42.3452 27.0876C42.3452 27.1192 42.4497 27.1451 42.5773 27.1451C42.7049 27.1451 42.8093 27.171 42.8093 27.2027C42.8093 27.2344 42.8819 27.2603 42.9705 27.2603C43.0652 27.2603 43.1662 27.3078 43.2153 27.3754C43.2613 27.4387 43.3329 27.4906 43.3742 27.4906C43.4798 27.4906 44.2015 28.2179 44.2015 28.3242C44.2015 28.3724 44.2276 28.4117 44.2595 28.4117C44.2914 28.4117 44.3175 28.4894 44.3175 28.5844C44.3175 28.6794 44.3436 28.7571 44.3755 28.7571C44.4074 28.7571 44.4335 28.8348 44.4335 28.9298C44.4335 29.0248 44.4596 29.1025 44.4915 29.1025C44.5253 29.1025 44.5495 29.2944 44.5495 29.5631C44.5495 29.8318 44.5253 30.0237 44.4915 30.0237C44.4596 30.0237 44.4335 30.1014 44.4335 30.1964C44.4335 30.2914 44.4074 30.3691 44.3755 30.3691C44.3436 30.3691 44.3175 30.4468 44.3175 30.5418C44.3175 30.6368 44.2914 30.7145 44.2595 30.7145C44.2276 30.7145 44.2015 30.7538 44.2015 30.802C44.2015 30.9083 43.4798 31.6356 43.3742 31.6356C43.3329 31.6356 43.2613 31.6874 43.2153 31.7508C43.1662 31.8184 43.0652 31.8659 42.9705 31.8659C42.8819 31.8659 42.8093 31.8918 42.8093 31.9235C42.8093 31.9551 42.7049 31.9811 42.5773 31.9811C42.4497 31.9811 42.3452 32.007 42.3452 32.0386C42.3452 32.0703 42.2147 32.0962 42.0552 32.0962C41.8957 32.0962 41.7652 32.0703 41.7652 32.0386C41.7652 32.007 41.6347 31.9811 41.4751 31.9811C41.3156 31.9811 41.1851 31.9551 41.1851 31.9235C41.1851 31.8918 41.1329 31.8659 41.0691 31.8659C41.0053 31.8659 40.9531 31.84 40.9531 31.8083C40.9531 31.7767 40.9066 31.7508 40.8499 31.7508C40.7931 31.7508 40.709 31.699 40.663 31.6356C40.617 31.5723 40.5452 31.5205 40.5033 31.5205C40.4043 31.5205 40.025 31.144 40.025 31.0458C40.025 31.0042 39.9727 30.9329 39.9089 30.8872C39.8451 30.8416 39.7929 30.7581 39.7929 30.7018C39.7929 30.6455 39.7668 30.5994 39.7349 30.5994C39.703 30.5994 39.6769 30.5216 39.6769 30.4267C39.6769 30.3317 39.6508 30.2539 39.6189 30.2539C39.587 30.2539 39.5609 30.1266 39.5609 29.9709C39.5609 29.8007 39.532 29.6744 39.4884 29.6542C39.4304 29.6274 39.4304 29.6139 39.4884 29.5871C39.5344 29.5657 39.5609 29.4291 39.5609 29.2129C39.5609 29.0242 39.5868 28.8722 39.6189 28.8722C39.6508 28.8722 39.6769 28.7945 39.6769 28.6995C39.6769 28.6045 39.703 28.5268 39.7349 28.5268C39.7668 28.5268 39.7929 28.4807 39.7929 28.4244C39.7929 28.368 39.8451 28.2846 39.9089 28.239C39.9727 28.1933 40.025 28.1222 40.025 28.0808C40.025 27.976 40.5246 27.4906 40.6325 27.4906C40.6812 27.4906 40.721 27.4646 40.721 27.433C40.721 27.4013 40.7732 27.3754 40.8371 27.3754C40.9009 27.3754 40.9531 27.3495 40.9531 27.3178C40.9531 27.2862 41.0053 27.2603 41.0691 27.2603C41.1329 27.2603 41.1851 27.2344 41.1851 27.2027C41.1851 27.171 41.2895 27.1451 41.4171 27.1451C41.5447 27.1451 41.6492 27.1192 41.6492 27.0876C41.6492 27.0556 41.8039 27.03 41.9972 27.03C42.1905 27.03 42.3452 27.0556 42.3452 27.0876Z" stroke="white" stroke-width="3" mask="url(#path-1-inside-1)"/>
</svg>
