<svg width="55" height="51" viewBox="0 0 55 51" fill="none" xmlns="http://www.w3.org/2000/svg">
<path fill-rule="evenodd" clip-rule="evenodd" d="M0.637 0.331C0.2695 0.4795 0.012 1.493 0.012 2.7915V5H24.012H48.012V13.75V22.5H30.262H12.512V30.25V38H15.012H17.512V32.75V27.5H35.762H54.012V13.75V0L27.637 0.0395C13.1305 0.061 0.981 0.1925 0.637 0.331ZM0.131 30.875L0.262 49.75L27.137 49.8795L54.012 50.0085V42.0045V34H39.262H24.512V35.991V37.9815L36.137 38.116L47.762 38.25L47.91 41.625L48.0575 45H27.035H6.012V30.5V16H23.762H41.512V14V12H20.756H0L0.131 30.875Z" fill="#21bf86"/>
</svg>
