<svg width="53" height="50" viewBox="0 0 53 50" fill="none" xmlns="http://www.w3.org/2000/svg">
<path d="M28.0741 32.8035L27.937 32.9101L27.6427 33.2044L27.6071 33.2349L27.5716 33.2501L27.5411 33.2451L27.5056 33.2501L27.4853 33.2603L27.465 33.2755L27.2417 33.5191L27.2163 33.5597L27.196 33.5902L27.1909 33.6105V33.6308L27.196 33.6511L27.2011 33.6663L27.2163 33.7019L27.2366 33.7323L27.328 33.8491L27.3381 33.8643L27.3483 33.8795V33.9049L27.3432 33.9354L27.328 33.9506L27.3127 33.9607L26.8204 34.1384L26.663 34.1942L26.257 34.3617L26.1199 34.4531L25.8509 34.7526L25.8052 34.7982L25.7139 34.6815L25.6428 34.6409L25.5565 34.651L25.3281 34.7627L25.252 34.783L25.1657 34.7627L25.0743 34.717L24.6023 34.3769L24.1911 34.0826L23.8612 33.8491L23.6836 33.6613L23.3689 33.2197L23.1811 33.0369L22.7699 32.7476L21.7954 32.0522L21.3183 31.7071L20.9173 31.4178L20.5721 31.1741L20.3995 31.0016L20.3691 30.9813L20.1559 30.7122L20.1255 30.6107L20.0747 30.3925L20.0645 30.3062L20.0747 30.225L20.1001 30.1539L20.1153 30.0829L20.1052 30.0016L20.0138 29.8037L20.0036 29.7225V29.621L19.9884 29.5448L19.9681 29.4738L19.892 29.3215L19.8717 29.2504L19.8615 29.088L19.8361 29.0525L19.5925 28.9104L19.4504 28.8697L19.3844 28.819L19.3742 28.7936L19.9884 28.0272L20.1407 27.6972L20.1052 27.5653L20.0087 27.4181L19.5265 26.875L20.1914 26.5552V26.4994L19.3539 25.3319L20.3995 24.936L20.6483 24.9411L20.7396 25.1594L20.8158 25.2863L21.3081 25.8751L21.7091 26.5806L21.7802 26.6212L22.039 26.677L22.4248 26.8293L22.8816 27.0882L23.7699 27.6363L23.8358 27.7531L23.9424 27.8597L23.9374 27.9358L24.2927 27.814L24.5008 27.4993L24.6784 27.1338L24.7292 27.0577L24.785 27.0069L24.8459 26.9866L24.9017 27.0019L24.9576 27.0526L25.0185 27.144L25.0337 27.276L25.0388 27.5297L25.0794 27.616L25.2063 27.6617L26.0032 27.7582L26.0692 27.6922L26.1605 27.347L26.2164 27.3166L26.3179 27.276L26.7087 27.2607L26.8356 27.2354L26.932 27.1947L27.0234 27.0577L27.0589 27.0628L27.0843 27.1541L27.1503 27.5501L27.1757 27.6516L27.2163 27.7683L27.3178 27.8495L27.4193 27.9104L27.7137 27.9815L28.607 28.0424L28.7492 28.0018L28.6781 28.2454L28.6629 28.3419L28.6578 28.4434V28.5398L28.6629 28.621L28.6781 28.6667L28.673 28.7124L28.6324 28.7073L28.4802 28.6769L28.4497 28.6718L28.4243 28.6819L28.3989 28.7022L28.3685 28.753L28.3634 28.7987L28.2822 29.0474L28.2162 29.1235L28.1655 29.1743L28.0995 29.3875L28.0639 29.4535L27.7188 29.4484L27.6528 29.4281L27.5868 29.3824L27.531 29.3316L27.4701 29.3164H27.4041L27.3026 29.3316L27.2518 29.3621L27.2264 29.3926L27.2163 29.4281L27.2112 29.4687V29.4991L27.2264 29.5753L27.3026 29.6514L27.2518 29.7935L27.2264 29.8189L27.2112 29.824V29.8341L27.2163 29.8494L27.2467 29.9052L27.333 29.9915L27.3787 30.0524L27.3939 30.0778L27.3889 30.0879L27.3026 30.0981L27.2823 30.1032L27.262 30.1184L27.2417 30.1336L27.2112 30.1387L27.1706 30.1742L27.0285 30.4585L26.9879 30.5143L26.9371 30.5651L26.8813 30.6057L26.7036 30.6869L26.6783 30.7376L26.658 30.763L26.6478 30.7782L26.5514 30.9001L26.5006 31.0066L26.46 31.1031L26.5057 31.1995L26.7189 31.499L26.8052 31.5548L26.9422 31.631L26.9473 31.6513L26.9625 31.6868L26.9727 31.7172L27.0133 31.7426H27.0691L27.196 31.6868L27.2417 31.6919L27.267 31.7376L27.6223 31.9051L27.6731 31.9913L27.6985 32.0776V32.1436L27.7086 32.2248L27.734 32.306L27.7898 32.3365L27.8609 32.3619L27.9066 32.3872L27.9573 32.4431L28.003 32.504L28.0183 32.5294L28.0335 32.57L28.0639 32.6715L28.069 32.6969L28.0741 32.8035V32.8035Z" stroke="white" stroke-linecap="round" stroke-linejoin="round"/>
<path d="M19.5265 26.8751L20.0087 27.4182L20.1051 27.5654L20.1407 27.6973L19.9884 28.0273L19.3742 28.7937L19.3692 28.7886L19.3438 28.6973L19.3285 28.6617L19.2169 28.5145L19.1763 28.4333L19.1154 28.1948L19.0798 28.1389L18.9834 28.0323L18.9529 27.9816L18.9276 27.9004L18.8971 27.7227L18.8007 27.3928L18.7702 27.3166L18.7905 27.2862L18.7753 27.2304L18.7702 26.9563L18.7601 26.8751L18.7347 26.8091L18.5164 26.4436L18.4606 26.3827L17.8007 25.8954L17.547 25.7838L17.2576 25.7076L17.151 25.6924L17.0851 25.7279L17.0445 25.8091L17.014 25.9462L16.9429 25.9868L16.8871 26.1137L16.8008 26.2051L16.6993 26.2558L16.5876 26.2609L16.4709 26.2101L16.1664 25.9919H16.1105L15.9379 26.0223L15.9227 25.9868L15.9126 25.9513L15.9024 25.9411L15.8466 26.0376L15.8263 26.0579L15.806 26.0782L15.6639 25.931L15.4608 25.8802L14.867 25.9157L14.5066 26.0376H14.3289L14.2274 26.0122L14.1462 25.9513L13.9838 25.7888L13.8061 25.6569L13.5219 25.5097L13.197 25.3422L13.1158 25.261L13.0955 25.1696L13.131 24.8498L13.1564 24.7838L13.192 24.728L13.2427 24.6823L13.3645 24.6214L13.4051 24.5757L13.3798 24.4996L13.1818 24.2204L13.0955 24.0479L13.0651 23.9057L13.1412 23.7991L13.2224 23.7433L13.3138 23.7332L13.4254 23.7687L13.527 23.8347L13.5879 23.8601L13.6335 23.855L13.664 23.8042L13.6589 23.7484L13.6335 23.6926L13.598 23.6469L13.5574 23.6113L13.4153 23.5251L13.3696 23.4794L13.3392 23.4286L13.3747 23.3931L13.4051 23.3017L13.4001 23.2611L13.3696 23.1901L13.3595 23.1748L13.3544 23.1545L13.3645 23.1393L13.3848 23.1241L13.4305 23.1139L13.5117 23.1088L13.5726 23.0835L13.7249 22.9769L13.7807 22.9261L13.796 22.916L13.8467 22.9109L13.9076 22.9566L13.9381 22.9769L14.0853 23.0124L14.2325 23.0276L14.2731 23.0632L14.2832 23.1444V23.322L14.3086 23.388L14.3848 23.5098L14.4203 23.6113L14.5015 23.7585L14.5421 23.8144L14.5929 23.8499L14.6589 23.8651H14.7959L14.8467 23.8956L14.8771 23.9616L14.9279 24.1138L15.004 24.2509L15.1004 24.3575L15.7958 24.9919L15.872 25.0072L15.9126 25.0224L15.943 25.0478L16.0496 25.1645L16.141 25.2508L16.207 25.2762L16.3795 25.3066L16.4354 25.3422L16.5927 25.5148L16.6282 25.5706L16.6638 25.6873L16.7095 25.7076L16.7298 25.7229L16.7957 25.7482L16.8719 25.7432L16.9226 25.7026L17.0394 25.4741L17.0901 25.4183L17.1358 25.3828L17.1866 25.3574L17.2475 25.3422H17.4048L17.9682 25.4792L18.1104 25.5401L18.2474 25.6213L18.42 25.7533L18.9225 26.3116L19.2727 26.8751L19.2879 26.8852L19.3285 26.9106L19.3692 26.9258L19.5265 26.8751V26.8751Z" stroke="white" stroke-linecap="round" stroke-linejoin="round"/>
<path d="M18.9015 16.9816L19.2212 17.5247L19.3684 17.6618L20.1653 17.88L20.211 17.9054V17.946L20.1907 17.9968L19.3887 19.5144L18.6324 20.9712L18.47 21.3519L18.404 22.1792V22.2249L18.4142 22.2655L18.7492 22.8847L18.8101 23.0116L18.7949 23.0319L18.7593 23.0675L18.1249 23.4278L18.064 23.4837V23.5344L18.0893 23.5903L19.3532 25.3313L20.1907 26.4987V26.5545L19.5258 26.8743L19.3684 26.925L19.3278 26.9098L19.2872 26.8844L19.272 26.8743L18.9218 26.3109L18.4193 25.7525L18.2467 25.6206L18.1096 25.5394L17.9675 25.4785L17.4041 25.3414H17.2468L17.1859 25.3566L17.1351 25.382L17.0894 25.4175L17.0387 25.4734L16.9219 25.7018L16.8712 25.7424L16.795 25.7475L16.729 25.7221L16.7087 25.7069L16.663 25.6866L16.6275 25.5698L16.592 25.514L16.4346 25.3414L16.3788 25.3059L16.2062 25.2754L16.1402 25.25L16.0489 25.1638L15.9423 25.047L15.9118 25.0216L15.8712 25.0064L15.7951 24.9912L15.0997 24.3567L15.0033 24.2501L14.9271 24.1131L14.8764 23.9608L14.8459 23.8948L14.7952 23.8644H14.6581L14.5921 23.8491L14.5414 23.8136L14.5008 23.7578L14.4196 23.6106L14.384 23.5091L14.3079 23.3872L14.2825 23.3213V23.1436L14.2724 23.0624L14.2318 23.0269L14.0846 23.0116L13.9374 22.9761L13.9069 22.9558L13.846 22.9101L13.7952 22.9152L13.78 22.9253L13.7242 22.9761L13.5719 23.0827L13.511 23.1081L13.4298 23.1131L13.3841 23.1233L13.3638 23.1385L13.3537 23.1538L13.3587 23.1741L13.3689 23.1893L13.3993 23.2603L13.4044 23.301L13.374 23.3923L13.3384 23.4278L13.2674 23.3263L13.1811 23.2502L12.8715 23.1335L12.7192 23.1385L12.6786 23.1182L12.643 23.0624L12.6481 23.0116L12.6837 22.971L12.7344 22.9558H12.7395L12.9121 22.8898L12.9019 22.7325L12.8461 22.5345L12.8715 22.3518L12.9222 22.3163L12.9831 22.2909L13.0288 22.2553L13.039 22.1894L13.0034 22.1386L12.9374 22.098L12.8055 22.0472L12.6989 21.9508L12.6177 21.8239L12.5263 21.7224L12.3943 21.7072L12.2624 21.7224L12.0035 21.697L11.3792 21.7935L11.2269 21.7884L11.1559 21.763L11.0391 21.6361L10.968 21.6107L10.8158 21.5955L10.7346 21.5447L10.694 21.4737L10.6584 21.1691L10.633 21.093L10.5874 21.027L10.3996 20.8291L10.3285 20.7834L10.2574 20.7935L10.1712 20.8341L10.0849 20.8595L9.99858 20.8646L9.86661 20.8392L9.6585 20.7478L9.46055 20.56L8.82608 19.8139L8.75502 19.7682L8.69918 19.8596L8.65858 20.1997L8.59767 20.3164L8.47585 20.357L8.32358 20.3469L8.17131 20.3113L7.85661 20.1794H7.78047L7.72972 20.1946L7.57237 20.291L7.4607 20.3418L7.40487 20.3824L7.37949 20.4382L7.39471 20.5194L7.45055 20.5651L7.82108 20.7428L7.92259 20.824L8.01396 20.961L8.09517 21.1488L8.31343 21.5041L8.43017 21.6463L8.4657 21.6767L8.48093 21.7122L8.4657 21.7478L8.43017 21.7681L8.24237 21.7985L8.19161 21.7833L8.16115 21.7325V21.6716L8.17638 21.6006L8.18653 21.5295L8.15608 21.3874L8.07994 21.2859L7.97843 21.2097L7.68911 21.0727L7.62312 21.0575L7.56729 21.0676L7.4607 21.1133L7.41502 21.1184L7.36426 21.093L7.29828 20.9915L7.25767 20.9509L7.20184 20.9306L7.13585 20.9255L7.06987 20.9407L7.01403 20.9661L6.98358 21.0016L6.9582 21.0524L6.88206 21.1387L6.80085 21.1742L6.75009 21.2148L6.7704 21.3214L6.83131 21.4585L6.83638 21.5194L6.811 21.6158L6.68918 21.8899L6.64858 21.9356L6.53691 21.9762L6.51153 22.0269L6.53184 22.0878L6.57244 22.1335L6.57752 22.1691L6.51661 22.2147L6.4557 22.23L6.25775 22.2198L6.20191 22.235L6.03441 22.3163L5.96843 22.3264L5.94812 22.1589L5.92275 22.0574L5.88214 21.9762L5.82631 21.9102L5.75525 21.8544L5.5979 21.7681L5.471 21.7528L5.44055 21.7427L5.41009 21.7173L5.36949 21.6869L5.30858 21.5904L5.27305 21.56L5.22229 21.5498L5.14615 21.5549L4.97865 21.6107L4.85176 21.6818L4.77562 21.7528L4.74517 21.7833L4.65381 21.9762L4.28328 23.1385L4.27312 23.1994V23.2197L4.00918 23.3466L3.9229 23.4634V23.6156L3.98888 23.9253L3.97873 24.0775L3.95843 24.2044L3.95335 24.3263L4.00918 24.4684L4.07517 24.575L4.10562 24.6816L4.11578 24.7932V24.9303L4.131 25.0419L4.16653 25.1485L4.22744 25.25L4.28835 25.3211L4.33403 25.3516L4.37464 25.3719L4.52691 25.4074L4.54722 25.4277L4.54214 25.4531L4.50661 25.4937L4.4457 25.5394L4.30865 25.6053L4.24775 25.6764L4.15638 25.8388L4.10055 25.8744L3.74017 25.7982L3.461 25.7424L2.80115 25.7018L2.08547 25.6663L1.53729 25.6358L1.06017 25.6104L1.05509 23.7984V22.8898V21.9762V21.0625V20.1438V19.22V18.2912V17.3623V16.4284L1.05002 15.4944V14.5554V13.6063V12.6622V11.7079V10.7486L1.06017 10.7435L1.33426 10.6522L1.60835 10.5659L1.88752 10.4745L2.44078 10.2969L2.71487 10.2055L2.99403 10.1192L3.26812 10.0278L3.82138 9.85019L4.10055 9.76391L4.37464 9.67254L4.65381 9.58626L4.9279 9.49489L5.48115 9.31724L5.85168 9.2005L6.21714 9.08883L6.58767 8.97716L6.9582 8.86042L7.1257 8.80966L7.29828 8.75891L7.63835 8.65739L7.816 8.60663L8.17131 8.50512L8.34896 8.45436L8.58752 8.3833L8.65858 8.38838L8.73979 8.42391L8.76517 8.44421L8.76009 8.44929L8.71441 8.5711L8.70426 8.64724L8.68903 8.69292L8.64843 8.77921L8.63828 8.82997V8.94671L8.62812 8.97716L8.61797 8.98732L8.59259 9.00254L8.58244 9.01269L8.57229 9.02792L8.54691 9.10406L8.44032 9.25126L8.42509 9.27663L8.42002 9.28679L8.38956 9.31724L8.25252 9.51012L8.23729 9.54057L8.23221 9.57103L8.22206 9.67762L8.18653 9.78929L8.14593 9.87557L8.1307 9.94156L8.11547 10.0735L8.10024 10.1395L8.07487 10.2055L8.04441 10.2664L8.02411 10.2918L7.9835 10.3324L7.9632 10.3578L7.95305 10.3882L7.94797 10.4187L7.93782 10.4796L7.92767 10.5405L7.72972 11.0227L7.70434 11.2105L7.69418 11.3323L7.69926 11.4541L7.76017 11.6318L7.82108 11.7891L7.90229 11.9211L7.95305 12.1038L7.94797 12.2003L7.92767 12.2663L7.90229 12.3272L7.84138 12.3678L7.77032 12.4693L7.75509 12.5403L7.73479 12.581L7.71956 12.6114L7.71449 12.6469L7.73479 12.7992L7.78555 12.9667L7.86168 13.0378L7.91752 13.0987L8.03426 13.119L8.17638 13.1088L8.32358 13.0276L8.47585 12.9007L8.60782 12.7789L8.69411 12.6672L8.73979 12.5962L8.77532 12.5302L8.83623 12.4591L8.90729 12.3576L8.97328 12.246L9.02403 12.1698L9.07479 12.0988L9.09002 12.048L9.04941 11.9719L8.9885 11.9465L8.91744 11.916L8.95805 12.0125L8.90729 12.0277L8.83623 12.0074L8.80578 11.9566L8.83623 11.7993L8.87176 11.7282L8.89206 11.6775L8.95297 11.6572L8.99358 11.6369L9.05449 11.6572L9.06971 11.7384L9.08494 11.7891L9.12555 11.8297L9.18646 11.845L9.2829 11.8196L9.33365 11.7587L9.31843 11.6775L9.25244 11.6166L9.21691 11.5556L9.24737 11.4491L9.25244 11.3171L9.21691 11.18L9.19153 11.0582V10.9719L9.25244 10.9567L9.33365 10.9415L9.37426 10.8501L9.38949 10.7486L9.41487 10.6725L9.43517 10.5506L9.36918 10.51L9.3032 10.5608L9.25244 10.6623L9.14077 10.7283L9.06971 10.7385L8.99358 10.7994L8.90729 10.7385L8.90221 10.642L8.93774 10.5405L8.9885 10.4238L9.03418 10.3222L9.12555 10.2207L9.17123 10.1344L9.25244 10.0532L9.33873 9.96694L9.40471 9.93648L9.26767 9.83497L9.19153 9.73853L9.12555 9.47966L9.10017 9.31216L9.09002 9.2005L9.10017 9.0736L9.14077 8.92641L9.18646 8.80459L9.21184 8.74368L9.50115 8.94163L9.87676 9.19542L10.1356 9.368L10.831 9.84512L11.2827 10.1446L11.2726 10.1649L11.2015 10.2613L11.1609 10.3425L11.1051 10.5303L11.0594 10.6522L10.9731 10.7994L10.9071 10.8806L10.8767 11.0278L10.8412 11.1699L10.7955 11.2765L10.7447 11.3678L10.6432 11.5049L10.5975 11.6064L10.562 11.7079L10.5417 11.8094L10.5772 12.0175L10.6534 12.1952L10.7447 12.317L10.9884 12.5962L11.3538 12.9616L11.5467 13.1494L11.699 13.2611L11.8512 13.3829L11.8868 13.4185L11.8969 13.4743L11.8817 13.591L11.8208 13.6824L11.6837 13.7738L11.638 13.8956L11.5873 14.0174L11.5213 14.1392L11.567 14.2509L11.7142 14.2763L11.8462 14.2661L11.9629 14.2306L12.039 14.1595L12.1456 14.1494L12.2624 14.1697L12.374 14.1291L12.4959 14.0478L12.6634 13.9362L12.7395 13.8347L12.7547 13.7839L12.7141 13.7382L12.6583 13.7331L12.6075 13.7128L12.5771 13.6824L12.5669 13.6469V13.6012L12.5821 13.5707L12.6024 13.52L12.638 13.4895L12.6634 13.4591H12.7141L12.7902 13.4641L12.8715 13.4794L12.9273 13.4641L12.973 13.4185L12.9933 13.3626L13.0339 13.2256L13.0542 13.0936L13.039 12.9616L13.0034 12.7434L12.9527 12.5759L12.8867 12.4388L12.8664 12.3069L12.8613 12.1952L12.9121 12.1241L12.9628 12.0835L13.0187 12.0175L13.0593 11.9262L13.0846 11.8094V11.6572L13.0897 11.4592V11.3577L13.1455 11.3983L13.7191 11.779L14.2571 12.1444L14.7546 12.4693L15.1809 12.7586L15.7951 13.1647L15.9778 13.2865L16.054 13.3728L16.1047 13.4844L16.125 13.5809L16.1453 13.7941L16.1758 13.8905L16.3484 14.1697L16.6834 14.5402L16.8458 14.7128L17.0082 14.8904L17.2163 15.129L17.3838 15.3219L17.7239 15.7178L17.8914 15.9106L18.0589 16.1035L18.2264 16.2964L18.5563 16.6771L18.7796 16.9309L18.8964 16.9816H18.9015V16.9816Z" stroke="white" stroke-linecap="round" stroke-linejoin="round"/>
<path d="M32.8555 26.2711V26.2864L32.4951 26.4336L32.4697 26.4945L32.4342 26.5402L32.4798 27.0883L32.4849 27.1086L32.4951 27.1239L32.5103 27.1594L32.5357 27.1898L32.556 27.2L32.5966 27.2254L32.8605 27.2964L32.8758 27.3117L32.8859 27.3269L32.8961 27.3421V27.3726V27.4081L32.8859 27.4792V27.5452L32.891 27.5655L32.9164 27.6314L32.9823 27.7482L32.9011 27.9563L32.4494 28.8344L32.3936 28.7786L32.358 28.7329L32.3479 28.7177L32.3428 28.7024L32.3377 28.6872V28.6669L32.358 28.606V28.5705L32.353 28.5552L32.3479 28.54L32.2464 28.4233L32.1601 28.3471L32.1296 28.3319L32.1042 28.3268L32.0738 28.337L31.8606 28.4842L31.7946 28.5146L31.7337 28.5248L31.688 28.5146L31.6322 28.4943L31.5814 28.4639L31.5205 28.4182L31.4749 28.3979L31.4342 28.3928L31.3936 28.403L31.3581 28.4334L31.3226 28.4689L31.2972 28.5146L31.2718 28.5654L31.2363 28.672L31.2261 28.7329V28.7938L31.2515 28.8649L31.2718 28.8953L31.287 28.9258L31.282 28.9562L31.2617 29.0019L31.2414 29.0222L31.1805 29.0476L31.1652 29.073V29.1034L31.2008 29.1948L31.2109 29.3318L31.1906 29.4181L31.15 29.5044L31.1449 29.5298L31.15 29.5552L31.1652 29.5755L31.2058 29.6161V29.6516L31.1906 29.677L31.1145 29.7836L31.0891 29.8343L31.0739 29.8851L31.0485 29.9714L30.9723 30.1541L30.9673 30.1795L30.9723 30.2048L30.9876 30.2099H31.0079L31.0637 30.1998H31.0891L31.1145 30.2048L31.1398 30.215L31.1551 30.2404L31.1652 30.2607V30.2911L31.15 30.3267L31.1195 30.3571L30.9317 30.5348L30.8962 30.5551L30.2617 30.687L30.1348 30.6617L30.008 30.5805L29.947 30.6008L29.8912 30.5703L29.8354 30.5297L29.7136 30.484L29.6679 30.4333L29.5917 30.3267L29.5613 30.3216L29.5511 30.3165L29.4953 30.3064L29.2263 30.1845H29.1806L29.1603 30.1947L29.1451 30.2099L29.1298 30.2505L29.1197 30.2759L29.1146 30.2911L29.1197 30.3419L29.1095 30.418V30.4383L29.1045 30.4586L29.0943 30.4688L29.0892 30.4891L29.0131 30.6008L29.008 30.6261L29.0182 30.6414H29.0385L29.0588 30.6464L29.074 30.6566L29.0892 30.6718L29.0943 30.6921L29.0892 30.7124L29.0791 30.7429L29.0334 30.8444L29.0233 30.8698L28.9725 31.0677L28.9522 31.1134L28.9268 31.1286L28.8913 31.1439H28.805L28.7238 31.1337L28.6375 31.0931L28.536 31.0373L28.5157 31.0322L28.4954 31.0424L28.4802 31.0677L28.4751 31.0931L28.4649 31.1591L28.4395 31.1794L28.4142 31.1997L28.2365 31.2454L28.0944 31.2657L28.0639 31.2708L28.0487 31.2809L28.0335 31.2961L28.0284 31.3164L28.0487 31.3621L28.1401 31.4636L28.1959 31.5144L28.2213 31.5398L28.2467 31.5753L28.333 31.9002L28.338 31.9306L28.333 31.9864L28.3279 32.022L28.3177 32.0524L28.2314 32.2504V32.2707L28.267 32.3874L28.4243 32.7021L28.3685 32.7377L28.0741 32.8036L28.069 32.697L28.0639 32.6717L28.0335 32.5702L28.0183 32.5295L28.003 32.5042L27.9573 32.4433L27.9066 32.3874L27.8609 32.362L27.7898 32.3367L27.734 32.3062L27.7086 32.225L27.6985 32.1438V32.0778L27.6731 31.9915L27.6223 31.9052L27.267 31.7377L27.2417 31.692L27.196 31.687L27.0691 31.7428H27.0133L26.9727 31.7174L26.9625 31.687L26.9473 31.6514L26.9422 31.6311L26.8052 31.555L26.7189 31.4992L26.5057 31.1997L26.46 31.1033L26.5006 31.0068L26.5514 30.9002L26.6478 30.7784L26.658 30.7632L26.6783 30.7378L26.7036 30.687L26.8813 30.6058L26.9371 30.5652L26.9879 30.5145L27.0285 30.4586L27.1706 30.1744L27.2112 30.1389L27.2417 30.1338L27.262 30.1186L27.2823 30.1033L27.3026 30.0983L27.3889 30.0881L27.3939 30.078L27.3787 30.0526L27.333 29.9917L27.2467 29.9054L27.2163 29.8495L27.2112 29.8343V29.8242L27.2264 29.8191L27.2518 29.7937L27.3026 29.6516L27.2264 29.5755L27.2112 29.4993V29.4689L27.2163 29.4283L27.2264 29.3927L27.2518 29.3623L27.3026 29.3318L27.4041 29.3166H27.4701L27.531 29.3318L27.5868 29.3826L27.6528 29.4283L27.7188 29.4486L28.0639 29.4536L28.0995 29.3877L28.1655 29.1745L28.2162 29.1237L28.2822 29.0476L28.3634 28.7989L28.3685 28.7532L28.3989 28.7024L28.4243 28.6821L28.4497 28.672L28.4802 28.677L28.6324 28.7075L28.673 28.7126L28.6781 28.6669L28.6629 28.6212L28.6578 28.54V28.4436L28.6629 28.342L28.6781 28.2456L28.7492 28.002L28.607 28.0426L27.7137 27.9817L27.4193 27.9106L27.3178 27.8497L27.2163 27.7685L27.1757 27.6517L27.1503 27.5502L27.0843 27.1543L27.0589 27.063L27.0234 27.0579L26.932 27.1949L26.8356 27.2355L26.7087 27.2609L26.3179 27.2761L26.2164 27.3167L26.1605 27.3472L26.0692 27.6923L26.0032 27.7583L25.2063 27.6619L25.0794 27.6162L25.0388 27.5299L25.0337 27.2761L25.0185 27.1442L24.9576 27.0528L24.9017 27.002L24.8459 26.9868L24.785 27.0071L24.7292 27.0579L24.6784 27.134L24.5008 27.4995L24.2927 27.8142L23.9373 27.936L23.9424 27.8599L23.8358 27.7533L23.7698 27.6365L22.8816 27.0883L22.4248 26.8295L22.039 26.6772L21.7802 26.6214L21.7091 26.5808L21.3081 25.8752L20.8158 25.2864L20.7396 25.1595L20.6483 24.9413L20.3995 24.9362L19.3539 25.3321L18.0901 23.5911L18.0647 23.5353V23.4845L18.1256 23.4287L18.7601 23.0683L18.7956 23.0328L18.8108 23.0125L18.7499 22.8856L18.4149 22.2664L18.4048 22.2258V22.1801L18.4708 21.3527L18.6332 20.972L19.3895 19.5153L20.1914 17.9977L20.2117 17.9469V17.9063L20.1661 17.8809L19.3692 17.6627L19.222 17.5256L18.9022 16.9825L19.1458 16.9368L19.3539 16.9013L19.7295 16.8302L20.0645 16.7693L20.232 16.7389L20.5011 16.6932L20.7701 16.6475L22.1152 16.4292L22.3842 16.3836L22.8359 16.4292L23.2826 16.4698L23.7343 16.5105L24.181 16.5511L24.5921 16.5866L24.9982 16.6221L25.4093 16.6627L25.8154 16.6983L25.9778 16.7135L26.0793 16.683L26.3788 16.5206L26.663 16.3633L26.9574 16.1958L27.2417 16.0384L27.2975 16.0181L27.3483 15.9978L27.4447 16.013L27.4904 16.0587L27.5411 16.0993L27.8609 16.5155L28.1756 16.9317L28.3228 17.0891L28.47 17.2414L28.7745 17.4342L29.0791 17.622L29.1958 17.7286L29.4445 18.2464L29.607 18.5763L29.8252 19.0331L30.0181 19.4239L30.0689 19.429L30.4952 19.2006L30.9165 18.9671L30.8556 19.967L30.7896 20.9619L30.7744 21.1751L30.749 21.2461L30.678 21.2715L30.6627 21.3273L30.6475 22.1039L30.6374 22.8755L30.6475 22.9211L30.6729 22.9414H31.0282H31.348L31.6728 22.9465H32.0281L32.0484 22.9414L32.0738 22.9465H32.0941L32.1093 22.9567L32.1601 23.4592L32.2108 23.9566L32.3022 24.4439L32.3986 24.9311L32.5255 25.5148L32.6524 26.0884L32.7184 26.1696L32.7844 26.2508L32.8555 26.2711V26.2711Z" stroke="white" stroke-linecap="round" stroke-linejoin="round"/>
<path d="M32.4494 28.8342L32.4748 28.8545L32.8453 28.8698L32.9671 28.9053L33.0128 28.9154L33.0636 28.9256L33.1295 28.9205L33.2057 28.9053L33.226 28.9002L33.2412 28.9154L33.2564 28.9358L33.2767 28.9865L33.292 29.022L33.297 29.0626L33.292 29.1134L33.2767 29.1692L33.2514 29.2301L33.2463 29.2504L33.2412 29.2758V29.3012L33.2463 29.4839L33.2514 29.5499L33.292 29.7529L33.3021 29.7682L33.3123 29.7885L33.3326 29.8088L33.3935 29.8342L33.4087 29.8494L33.4189 29.8646V29.8951L33.4087 29.9154V29.9458L33.4189 29.9763L33.5001 30.0727L33.495 30.1641L33.4849 30.1996L33.4747 30.2098L33.4595 30.225L33.4036 30.2402L33.3884 30.2504L33.3833 30.2707L33.3783 30.291L33.3935 30.4636L33.4036 30.4839L33.4138 30.4991L33.4493 30.5092H33.4747L33.5001 30.5042L33.5153 30.4991L33.5711 30.4737L33.5864 30.4686H33.6067H33.627L33.6473 30.4839L33.6625 30.5092L33.6676 30.56L33.6574 30.5854V30.6209L33.6625 30.6412L33.764 30.7529L33.8046 30.7376H33.8199L33.83 30.7326L33.8655 30.7884L34.099 30.8544L34.1345 30.8595L34.1802 30.8544L34.2005 30.8493H34.2208L34.2716 30.8798L34.2919 30.8899L34.3173 30.895L34.3477 30.8848L34.4137 30.8899L34.9264 30.9864L34.9771 31.0676L35.0533 31.428L35.0431 31.4584L34.9974 31.4686H34.9771L34.8959 31.4889L34.835 31.5092L34.7386 31.5599L34.6929 31.5954L34.6726 31.6158L34.6675 31.6361L34.6574 31.6614V31.7173V31.7528L34.6624 31.7782L34.6675 31.7985L34.6726 31.834V31.8594V31.9051L34.6675 31.9254L34.6523 31.9457L34.6269 31.9558L34.6015 31.9609H34.5102L34.4746 31.9711L34.4543 32.0066L34.4442 32.037L34.4391 32.301L34.4696 32.367L34.5102 32.4177L34.632 32.5243L34.8553 32.7223L34.8299 32.7578L34.7944 32.905L34.7741 33.0573L34.769 33.1994L34.7335 33.3263L34.7132 33.4532L34.6929 33.4633L34.6624 33.4532L34.632 33.4633L34.6269 33.4684L33.9214 33.2908L33.764 33.2806V33.3009L33.7691 33.3415V33.3567V33.377L33.7589 33.3973L33.7488 33.4126L33.7336 33.4278L33.7183 33.4329L33.6828 33.443L33.358 33.4532L33.3174 33.4481L33.297 33.438L33.2767 33.4278L33.2564 33.4126L33.2463 33.3923L33.2412 33.3618L33.2463 33.3009L33.2666 33.1994L33.2564 33.1436L33.1955 33.0319L33.1346 33.0217L32.8808 32.971L32.6524 32.9355H32.6118L32.5611 32.9507L32.5154 32.9761L32.49 32.9964L32.4697 33.0167L32.3733 33.1639L32.3479 33.1892L32.1245 33.2806H32.1042L32.0636 33.2705L32.018 33.2451L31.8403 33.108L31.7692 33.0573L31.7134 33.0623L31.287 33.1588L31.2718 33.1639L30.9876 33.3009L30.9267 33.3415L30.881 33.3567H30.7744L30.5764 33.306L30.5612 33.2908L30.546 33.2654L30.5409 33.2248L30.5358 33.1943V33.1689L30.5409 33.108V33.0522L30.5308 33.0268L30.5206 33.0065L30.4495 32.9507L30.3582 32.8898L30.2059 32.7375L30.1755 32.6969L30.1552 32.6664L30.1501 32.6461L30.1196 32.5192L30.1145 32.504L30.1044 32.4888L30.0892 32.4736L30.0739 32.4634L30.0536 32.4583L30.0283 32.4533H29.9369L29.9014 32.4583L29.876 32.4736L29.8709 32.4939V32.5142V32.57V32.5903L29.8658 32.6106L29.8557 32.6258L29.8455 32.6411L29.7795 32.6867L29.7186 32.7223L29.6831 32.7324L28.4243 32.702L28.267 32.3873L28.2314 32.2705V32.2502L28.3177 32.0523L28.3279 32.0218L28.333 31.9863L28.338 31.9305L28.333 31.9L28.2467 31.5751L28.2213 31.5396L28.1959 31.5142L28.1401 31.4635L28.0487 31.362L28.0284 31.3163L28.0335 31.296L28.0487 31.2808L28.0639 31.2706L28.0944 31.2655L28.2365 31.2452L28.4142 31.1995L28.4395 31.1792L28.4649 31.1589L28.4751 31.0929L28.4802 31.0676L28.4954 31.0422L28.5157 31.032L28.536 31.0371L28.6375 31.0929L28.7238 31.1336L28.805 31.1437H28.8913L28.9268 31.1285L28.9522 31.1133L28.9725 31.0676L29.0233 30.8696L29.0334 30.8442L29.0791 30.7427L29.0892 30.7123L29.0943 30.692L29.0892 30.6717L29.074 30.6564L29.0588 30.6463L29.0385 30.6412H29.0182L29.008 30.626L29.0131 30.6006L29.0892 30.4889L29.0943 30.4686L29.1045 30.4585L29.1095 30.4382V30.4179L29.1197 30.3417L29.1146 30.291L29.1197 30.2758L29.1299 30.2504L29.1451 30.2098L29.1603 30.1945L29.1806 30.1844H29.2263L29.4953 30.3062L29.5511 30.3164L29.5613 30.3214L29.5917 30.3265L29.6679 30.4331L29.7136 30.4839L29.8354 30.5295L29.8912 30.5701L29.947 30.6006L30.008 30.5803L30.1349 30.6615L30.2617 30.6869L30.8962 30.5549L30.9317 30.5346L31.1195 30.357L31.15 30.3265L31.1652 30.291V30.2605L31.1551 30.2402L31.1399 30.2148L31.1145 30.2047L31.0891 30.1996H31.0637L31.0079 30.2098H30.9876L30.9724 30.2047L30.9673 30.1793L30.9724 30.1539L31.0485 29.9712L31.0739 29.8849L31.0891 29.8342L31.1145 29.7834L31.1906 29.6768L31.2058 29.6514V29.6159L31.1652 29.5753L31.15 29.555L31.1449 29.5296L31.15 29.5042L31.1906 29.4179L31.2109 29.3317L31.2008 29.1946L31.1652 29.1033V29.0728L31.1805 29.0474L31.2414 29.022L31.2617 29.0017L31.282 28.9561L31.287 28.9256L31.2718 28.8951L31.2515 28.8647L31.2261 28.7936V28.7327L31.2363 28.6718L31.2718 28.5652L31.2972 28.5145L31.3226 28.4688L31.3581 28.4333L31.3936 28.4028L31.4342 28.3926L31.4749 28.3977L31.5205 28.418L31.5814 28.4637L31.6322 28.4942L31.688 28.5145L31.7337 28.5246L31.7946 28.5145L31.8606 28.484L32.0738 28.3368L32.1042 28.3267L32.1296 28.3317L32.1601 28.347L32.2464 28.4231L32.3479 28.5398L32.353 28.5551L32.358 28.5703V28.6058L32.3377 28.6667V28.687L32.3428 28.7023L32.3479 28.7175L32.358 28.7327L32.3936 28.7784L32.4494 28.8342V28.8342Z" stroke="white" stroke-linecap="round" stroke-linejoin="round"/>
<path d="M34.6269 33.4685L34.6066 33.4888L34.5913 33.5041L34.5863 33.5294L34.5812 33.5853L34.6015 33.7375L34.6827 33.8137L35.0431 33.9406L35.2816 33.9507L35.3984 33.9964L35.4085 34.0116L35.4339 34.0573L35.4491 34.0725L35.4694 34.0776L35.5202 34.0675L35.5405 34.0725L35.5659 34.1182L35.571 34.169L35.5354 34.4634L35.5507 34.5598H35.5557L35.5101 34.5953L35.4593 34.6156L35.2461 34.6258L35.2055 34.6359L35.1751 34.6512L35.1547 34.6613L35.1395 34.6766L35.1141 34.6969L35.0989 34.7273L35.0888 34.7527V34.7831L35.1141 34.8745L35.1294 35.0115L35.2004 35.1384L35.2055 35.1537L35.2106 35.174V35.1994L35.2055 35.2197L35.2004 35.245V35.2653L35.1954 35.2856V35.3059L35.2004 35.3262V35.3466L35.2106 35.3618L35.2157 35.4024L35.2207 35.4227V35.443L35.2106 35.4734L35.1954 35.5039L35.1649 35.5496L35.1497 35.58L35.1446 35.6105V35.6765L35.1395 35.6917L35.1294 35.7069L35.1091 35.7019L35.0938 35.6917L35.038 35.6359L35.0279 35.6257L35.0126 35.6156L34.9923 35.6054L34.9466 35.5953L34.901 35.5902H34.8604L34.8197 35.6003L34.7791 35.6206L34.7538 35.6409L34.7335 35.6612L34.7182 35.6765L34.5406 36.0216L34.5101 36.0622L34.4594 36.1181L34.4289 36.1384L34.3832 36.1637L34.2665 36.1942L34.2462 36.245L34.2107 36.3008L34.1599 36.3566L34.0482 36.448L34.033 36.4734L34.0127 36.5241L33.9975 36.585L33.967 36.7779L33.9416 36.8693L33.9366 36.8896L33.896 36.9302L33.5711 37.1941L33.4036 37.2855L33.3681 37.2956L33.2615 37.3159L33.2361 37.3312L33.2107 37.3667L33.1651 37.4428L33.1346 37.519L33.1194 37.5596L33.1041 37.6053L33.0838 37.6509L33.0635 37.6916L32.7032 38.0266L32.6778 38.0621L32.6626 38.123L32.6473 38.2702L32.6321 38.3209L32.5864 38.4123L32.4951 38.4681L32.4595 38.3666L32.3631 38.2956L32.2565 38.2397L32.1397 38.2093H31.9164L31.8251 38.1839L31.5256 38.0418L31.3885 37.8692L31.3022 37.7829L31.2058 37.7423L31.0129 37.6865L30.8302 37.5393L30.749 37.4936L30.551 37.4631L30.2566 37.321L30.1551 37.3109L30.0739 37.3464L29.9318 37.4581L29.8557 37.5037L29.6526 37.519L29.4547 37.453L28.9674 37.1231L28.673 36.9251L28.2771 36.6561L27.9979 36.3972L27.602 36.0419L27.4041 35.915L26.9726 35.7628L26.5919 35.5445L25.9727 35.0166L25.8052 34.7984L25.8509 34.7527L26.1199 34.4532L26.2569 34.3619L26.663 34.1944L26.8204 34.1385L27.3127 33.9609L27.3279 33.9507L27.3432 33.9355L27.3482 33.905V33.8797L27.3381 33.8644L27.3279 33.8492L27.2366 33.7325L27.2163 33.702L27.201 33.6665L27.196 33.6512L27.1909 33.6309V33.6106L27.196 33.5903L27.2163 33.5599L27.2416 33.5193L27.465 33.2756L27.4853 33.2604L27.5056 33.2503L27.5411 33.2452L27.5716 33.2503L27.6071 33.235L27.6426 33.2046L27.937 32.9102L28.0741 32.8036L28.3685 32.7376L28.4243 32.7021L29.6831 32.7325L29.7186 32.7224L29.7795 32.6869L29.8455 32.6412L29.8557 32.6259L29.8658 32.6107L29.8709 32.5904V32.5701V32.5143V32.494L29.876 32.4737L29.9013 32.4584L29.9369 32.4534H30.0282L30.0536 32.4584L30.0739 32.4635L30.0891 32.4737L30.1044 32.4889L30.1145 32.5041L30.1196 32.5194L30.1501 32.6462L30.1551 32.6666L30.1754 32.697L30.2059 32.7376L30.3582 32.8899L30.4495 32.9508L30.5206 33.0066L30.5307 33.0269L30.5409 33.0523V33.1081L30.5358 33.169V33.1944L30.5409 33.2249L30.546 33.2655L30.5612 33.2909L30.5764 33.3061L30.7744 33.3569H30.881L30.9266 33.3416L30.9876 33.301L31.2718 33.164L31.287 33.1589L31.7134 33.0625L31.7692 33.0574L31.8403 33.1081L32.0179 33.2452L32.0636 33.2706L32.1042 33.2807H32.1245L32.3479 33.1894L32.3732 33.164L32.4697 33.0168L32.49 32.9965L32.5154 32.9762L32.561 32.9508L32.6118 32.9356H32.6524L32.8808 32.9711L33.1346 33.0219L33.1955 33.032L33.2564 33.1437L33.2666 33.1995L33.2463 33.301L33.2412 33.3619L33.2463 33.3924L33.2564 33.4127L33.2767 33.4279L33.297 33.4381L33.3173 33.4482L33.3579 33.4533L33.6828 33.4431L33.7183 33.433L33.7335 33.4279L33.7488 33.4127L33.7589 33.3975L33.7691 33.3772V33.3569V33.3416L33.764 33.301V33.2807L33.9213 33.2909L34.6269 33.4685V33.4685Z" stroke="white" stroke-linecap="round" stroke-linejoin="round"/>
<path d="M32.4951 38.4681L32.5864 38.4123L32.6321 38.3209L32.6474 38.2702L32.6626 38.123L32.6778 38.0621L32.7032 38.0266L33.0636 37.6916L33.0839 37.6509L33.1042 37.6053L33.1194 37.5596L33.1346 37.519L33.1651 37.4428L33.2108 37.3667L33.2361 37.3312L33.2615 37.316L33.3681 37.2956L33.4036 37.2855L33.5711 37.1941L33.896 36.9302L33.9366 36.8896L33.9417 36.8693L33.967 36.7779L33.9975 36.585L34.0127 36.5241L34.033 36.4734L34.0483 36.448L34.1599 36.3566L34.2107 36.3008L34.2462 36.245L34.2665 36.1942L34.3833 36.1638L34.4289 36.1384L34.4594 36.1181L34.5102 36.0622L34.5406 36.0216L34.7183 35.6765L34.7335 35.6613L34.7538 35.641L34.7792 35.6206L34.8198 35.6003L34.8604 35.5902H34.901L34.9467 35.5953L34.9924 35.6054L35.0127 35.6156L35.0279 35.6257L35.038 35.6359L35.0939 35.6917L35.1091 35.7019L35.1294 35.7069L35.1395 35.6917L35.1446 35.6765V35.6105L35.1497 35.58L35.1649 35.5496L35.1954 35.5039L35.2106 35.4735L35.2208 35.443V35.4227L35.2157 35.4024L35.2106 35.3618L35.2005 35.3466V35.3263L35.1954 35.306V35.2856L35.2005 35.2653V35.245L35.2055 35.2197L35.2106 35.1994V35.174L35.2055 35.1537L35.2005 35.1384L35.1294 35.0116L35.1142 34.8745L35.0888 34.7831V34.7527L35.0989 34.7273L35.1142 34.6969L35.1395 34.6766L35.1548 34.6613L35.1751 34.6512L35.2055 34.636L35.2461 34.6258L35.4593 34.6156L35.5101 34.5953L35.5558 34.5598L35.6065 34.6106L35.9821 34.6766L36.0633 34.6715L36.2867 34.5953L36.3273 34.575L36.3679 34.5649H36.4136L36.4592 34.5852L36.4846 34.5953L36.5303 34.641L36.576 34.6512L36.6267 34.6309L36.6775 34.5953L36.6978 34.5903H36.7232H36.7486L36.7739 34.5953L36.8196 34.6512L36.9161 34.8745L37.0024 35.0014L37.0328 35.0775L37.0277 35.1588L37.0024 35.2247L36.9668 35.2755L36.9211 35.3161L36.8704 35.3415L36.7993 35.3567H36.7486L36.7181 35.377L36.708 35.4582L36.713 35.4988L36.7333 35.5293L36.7435 35.5648V35.6105L36.7283 35.6308L36.6521 35.6866L36.6318 35.7425L36.6369 35.8084L36.6775 35.9506L36.6826 36.0267L36.6724 36.245L36.6826 36.3262L36.7029 36.3769L36.7739 36.4886L36.7942 36.5444L36.7993 36.6663L36.8095 36.717L36.8349 36.7728L36.9516 36.8845L37.0633 37.0825L37.114 37.1383L37.2663 37.2246L37.4998 37.4327L37.5708 37.5444L37.581 37.6916L37.5353 37.9098L37.4642 38.1179L37.3475 38.2956L37.312 38.3666L37.2866 38.4275L37.2764 38.4884L37.2511 38.5341L37.2054 38.5697L37.1597 38.5798L37.0227 38.6001L36.9313 38.6306L36.8805 38.6864L36.7536 39.0671L36.6674 39.2397L36.4542 39.5391L36.2917 39.6914L36.1395 39.8843L36.0177 40.1025L35.9314 40.331L35.9212 40.4883L35.9821 40.7827L35.9923 40.94L35.977 41.072L35.9415 41.1989L35.8857 41.3106L35.8705 41.3613L35.8603 41.2953L35.8248 41.2446L35.774 41.2141L35.7131 41.1989L35.6065 41.204L35.5659 41.1989L35.5355 41.1786L35.4695 41.1329L35.439 41.1228L35.4035 41.1278L35.3477 41.1431L35.3172 41.1481L35.2969 41.1634L35.2817 41.1989L35.2563 41.2344L35.2258 41.2497L35.1751 41.204L35.1192 41.0517L35.0533 41.0162L34.9924 41.0365L34.9365 41.0771L34.8401 41.1735L34.7842 41.2192L34.7233 41.2497L34.6574 41.2649L34.5863 41.275L34.5102 41.2903L34.3985 41.3613L34.3325 41.3766L34.2665 41.3512L34.2361 41.2953L34.2107 41.2243L34.1853 41.1583L34.1244 41.1075L33.9924 41.0568L33.9315 41.0162L33.9061 40.9603L33.8554 40.7979L33.8199 40.7675L33.7589 40.7472L33.6422 40.666L33.5864 40.6355H33.4442L33.1752 40.6964L32.7895 40.7167L32.759 40.7269L32.6981 40.7776L32.6677 40.7878H32.5864L32.5509 40.7776L32.358 40.6964L32.287 40.6863L32.2108 40.6964L32.155 40.7116L32.0789 40.6558L32.0839 40.5898L32.1296 40.5238L32.1855 40.468L32.2311 40.3919L32.221 40.331L32.1753 40.2802L32.1144 40.2294L32.0738 40.1279L32.089 39.9909L32.1499 39.7422L32.1601 39.595L32.1398 39.3006L32.1499 39.1534L32.2514 38.9706L32.4189 38.7575L32.5255 38.5443L32.4951 38.4681V38.4681Z" stroke="white" stroke-linecap="round" stroke-linejoin="round"/>
<path d="M48.9913 28.9764L48.9862 28.9561L48.9609 28.8647L48.9558 28.814L48.9659 28.7429L48.9761 28.6718V28.6261V28.6008L48.971 28.5805L48.9304 28.5449L48.7781 28.4993L48.7426 28.4942L48.7223 28.479L48.6665 28.3927L48.6259 28.3622L48.5954 28.3876L48.5649 28.4282L48.5142 28.4333L48.3365 28.3977L48.1944 28.3521L48.1132 28.3571L48.0523 28.3673L47.9812 28.3571L47.9559 28.347L47.9305 28.3318L47.8137 28.1693L47.7884 28.1236L47.763 28.0983L47.7274 28.078L47.5752 28.0272L47.5295 28.0221L47.494 28.0272L47.4787 28.0374L47.4534 28.0323L47.4127 28.0221L47.3315 27.9765H47.3011L47.2859 27.9917L47.2808 28.0577L47.2656 28.0526L47.2351 28.0069L47.1742 27.8851L47.0828 27.7531L47.1691 27.6668L47.1234 27.5704L47.0879 27.5247L47.0828 27.4943L47.0981 27.474L47.1945 27.3826L47.23 27.3572L47.2706 27.3014L47.5752 27.2202L47.6716 27.2658L47.7934 27.21L47.829 27.1999H47.8949L47.966 27.2049L48.0472 27.1948L48.433 27.2912L48.4837 27.2963L48.5345 27.2861L48.7121 27.2811L48.7527 27.2709L48.7731 27.2608L48.7832 27.2557L48.8086 27.2354L48.8796 26.9105L48.8949 26.8446L49.0624 26.7938L49.174 26.7786L49.1943 26.7583L49.2299 26.6568L49.2451 26.6314L49.3009 26.5857L49.3365 26.6111L49.4227 26.743L49.4837 26.7836L49.5699 26.809L49.7273 26.8243L49.7425 26.8344L49.7476 26.8496V26.8699L49.7425 26.8953V26.9867L49.7984 27.0121L49.8694 27.0171L49.9303 27.0425L50.0521 27.2405L50.1435 27.3369L50.2602 27.3877L50.3871 27.4029L50.7678 27.3674L50.8795 27.4029L50.8947 27.5146L50.8846 27.5805L50.9252 27.5755L51.0622 27.479L51.2805 27.3775L51.3262 27.408L51.3668 27.4689L51.4277 27.5095L51.6002 27.4993L51.6916 27.5196L51.7068 27.5958L51.6155 27.7176L51.4784 27.7988L51.1993 27.9003L50.9455 28.0577L50.7323 28.1135L50.6308 28.1592L50.5597 28.2658L50.5242 28.5246L50.4379 28.5652L50.3313 28.5145H50.2755L50.2552 28.5805L50.2501 28.6363L50.2349 28.6921L50.2095 28.7378L50.1638 28.7784L50.0471 28.7835L49.839 28.6414L49.7273 28.6261L49.641 28.5805L49.5446 28.4688L49.4431 28.3825L49.3568 28.4231L49.3466 28.484L49.4126 28.5906L49.4075 28.6617L49.3923 28.7277V28.7683L49.4177 28.8038L49.5446 28.8952L49.575 28.9764V29.0677L49.5395 29.1642L49.4786 29.2454L49.4126 29.2606L49.3314 29.2302L49.1588 29.1286L49.1131 29.1134L48.9812 29.1185L48.9405 29.1033L48.9558 29.0677L48.9913 29.0576L49.0421 29.0525L49.0827 29.0424L49.0979 29.0018L49.0674 28.9764L49.0167 28.9713L48.9913 28.9764V28.9764Z" stroke="white" stroke-linecap="round" stroke-linejoin="round"/>
<path d="M47.6005 31.1234L47.5548 31.1336L47.4838 31.1082L47.4229 31.0828L47.362 31.0371L47.3315 30.9813L47.3823 30.9204H47.4533L47.5041 30.895L47.6107 30.8138L47.6868 30.7884L47.697 30.829L47.631 31.0777L47.6005 31.1234V31.1234ZM45.8697 30.5854L45.89 30.5905L45.9052 30.5803L45.9357 30.5549L45.956 30.5448L46.027 30.5245L46.0676 30.5346L46.0879 30.5702L46.0676 30.6311L45.9306 30.7275L45.8849 30.7732L45.89 30.8747L46.022 31.0118L46.0169 31.1336L45.9814 31.1793L45.9407 31.1945H45.8443L45.7022 31.2351L45.6616 31.23L45.6261 31.1945L45.621 31.1539L45.6057 31.1234L45.5499 31.1184L45.5144 31.1437L45.4738 31.1843L45.4332 31.2097L45.3976 31.1894L45.3926 31.093L45.5195 30.895L45.5042 30.7783L45.4687 30.7529L45.3926 30.7377L45.352 30.7174L45.3215 30.6666L45.2454 30.5093L45.2301 30.4433L45.2352 30.3824L45.2504 30.3113L45.3012 30.1946L45.3926 30.1438L45.4586 30.1844L45.5093 30.2758L45.5499 30.3824L45.6007 30.4484L45.6819 30.4991L45.8443 30.5702L45.8545 30.5803L45.8697 30.5854V30.5854ZM47.0828 27.7531L47.1742 27.8851L47.2351 28.0069L47.2655 28.0526L47.2807 28.0577L47.2858 27.9917L47.3011 27.9765H47.3315L47.4127 28.0221L47.4533 28.0323L47.4787 28.0374L47.4939 28.0272L47.5295 28.0221L47.5751 28.0272L47.7274 28.078L47.7629 28.0983L47.7883 28.1237L47.8137 28.1693L47.9304 28.3318L47.9558 28.347L47.9812 28.3571L48.0523 28.3673L48.1132 28.3571L48.1944 28.3521L48.3365 28.3977L48.5142 28.4333L48.5649 28.4282L48.5954 28.3876L48.6258 28.3622L48.6664 28.3927L48.7223 28.479L48.7426 28.4942L48.7781 28.4993L48.9304 28.5449L48.971 28.5805L48.9761 28.6008V28.6262V28.6718L48.9659 28.7429L48.9557 28.814L48.9608 28.8647L48.9862 28.9561L48.9913 28.9764L48.8593 28.9815L48.8086 28.9916L48.6106 29.1033L48.5852 29.1439L48.5649 29.2149L48.5243 29.3215L48.4482 29.4027L48.1893 29.5296L48.1741 29.5855L48.1944 29.6464L48.2502 29.6819L48.3365 29.7225L48.3771 29.753L48.3923 29.7834L48.372 29.824L48.3314 29.8342L48.2857 29.8291L48.2502 29.8139L48.2299 29.8088H48.2096L48.1741 29.819L48.0624 29.8088L47.9457 29.7834L47.834 29.7885L47.7426 29.8799L47.6919 30.0017L47.6564 30.0575L47.6107 30.1032L47.4533 30.1946L47.4127 30.2047L47.3518 30.1793L47.3366 30.1184V29.9611L47.3163 29.8849L47.2757 29.7987L47.2198 29.753L47.1691 29.7987L47.1488 29.8748L47.1437 29.9408L47.1183 29.9865L47.0473 29.9915L46.9051 29.9662L46.8392 29.9357L46.7782 29.9002L46.7224 29.8443L46.697 29.7885L46.6717 29.7428L46.5397 29.7022L46.4483 29.6159L46.3874 29.6109L46.2961 29.621L46.2453 29.6159L46.2047 29.5956L46.1742 29.5601L46.1489 29.5195L46.1184 29.4992L46.0778 29.5093L46.027 29.5804L46.0017 29.6667L45.9611 29.7327L45.8697 29.7428L45.5245 29.6921L45.352 29.7225L45.2454 29.8291L45.1845 29.824L44.9256 29.8494L44.5043 29.9763L44.3774 29.9865L44.2556 29.9814L44.1338 29.8951L44.083 29.7327L44.0424 29.5499L43.9663 29.423L43.9003 29.3977L43.8445 29.4027L43.7886 29.418L43.7226 29.423L43.6617 29.4078L43.5145 29.3418L43.5551 29.2048L43.545 29.1896L43.5196 29.1591L43.5145 29.154L43.479 29.0982L43.4739 29.088L43.4689 29.0677L43.4638 28.9865L43.5095 28.9104L43.5957 28.8546L43.7988 28.8089L43.8292 28.7937L43.8597 28.7581L43.9307 28.6363L43.9714 28.5957L44.012 28.5754L44.0526 28.5652L44.0982 28.5449L44.1338 28.5094L44.2404 28.3825L44.418 28.2353L44.4637 28.1947L44.5043 28.1592L44.5297 28.149L44.5804 28.1389L44.5906 28.1237L44.5957 28.1034L44.6058 28.0881L44.6515 28.0577L44.7276 28.012L44.7581 27.9714L44.7835 27.9359L44.819 27.9003L44.8647 27.8749L44.9053 27.8699L44.9865 27.88L45.0271 27.8749L45.1642 27.748H45.2251L45.2707 27.7683L45.2961 27.7836L45.3164 27.8039L45.4078 27.814L45.7428 27.7988L45.555 28.0526L45.5702 28.0729L45.687 28.083L45.7073 28.0932L45.7936 28.1846L45.8139 28.1947L45.8443 28.2049L45.9001 28.215L45.9306 28.2252L45.9915 28.2759L46.1285 28.3521L46.1692 28.3622L46.2351 28.3521L46.428 28.1693L46.5194 28.0221L46.5803 27.9765L46.8392 27.8343L47.0828 27.7531V27.7531Z" stroke="white" stroke-linecap="round" stroke-linejoin="round"/>
<path d="M48.8948 26.8447L48.8796 26.9107L48.8085 27.2355L48.7832 27.2558L48.773 27.2609L48.7527 27.2711L48.7121 27.2812L48.5345 27.2863L48.4837 27.2965L48.4329 27.2914L48.0472 27.1949L47.966 27.2051L47.8949 27.2H47.8289L47.7934 27.2102L47.6716 27.266L47.5751 27.2203L47.2706 27.3015L47.23 27.3574L47.1945 27.3827L47.098 27.4741L47.0828 27.4944L47.0879 27.5249L47.1234 27.5705L47.1691 27.667L47.0828 27.7533L46.8392 27.8345L46.5803 27.9766L46.5194 28.0223L46.428 28.1695L46.2351 28.3522L46.1692 28.3624L46.1285 28.3522L45.9915 28.2761L45.9306 28.2253L45.9001 28.2152L45.8443 28.205L45.8139 28.1949L45.7935 28.1847L45.7073 28.0933L45.687 28.0832L45.5702 28.073L45.555 28.0527L45.7428 27.799L45.4078 27.8142L45.3164 27.804L45.2961 27.7837L45.2707 27.7685L45.2251 27.7482H45.1642L45.0271 27.8751L44.9865 27.8802L44.9053 27.87L44.8647 27.8751L44.819 27.9005L44.7835 27.936L44.7581 27.9715L44.7276 28.0121L44.6515 28.0578L44.6566 28.0274L44.682 27.8954L44.5703 27.8294L44.3013 27.7634L44.2556 27.7076L44.2454 27.6365L44.2759 27.5908L44.3317 27.5807L44.4332 27.6721L44.4942 27.6924L44.4992 27.6213L44.4739 27.5858L43.9358 26.9767L43.8445 26.8955L43.8343 26.8853L43.8292 26.8701L43.7683 26.8092L43.7937 26.7178L43.7835 26.4285L43.7734 26.3422L43.7125 26.2407L43.6516 26.1595L43.6364 26.129L43.6262 26.1036V26.0732L43.6313 26.0529L43.6871 25.9311L43.6973 25.9057L43.7125 25.8549L43.7023 25.8194L43.6211 25.8093L43.611 25.794L43.6008 25.7737L43.5957 25.7128L43.5907 25.6671L43.5957 25.6418L43.6008 25.6164L43.748 25.4235L43.7734 25.3778L43.8089 25.2814H43.8292L43.9257 25.2458L44.2911 25.0377L44.3876 25.0225L44.4434 25.058L44.4942 25.124L44.6617 25.4083L44.687 25.4895L44.6921 25.5707L44.6515 25.8143L44.6566 25.8803L44.6921 25.9361L44.7378 25.9311L44.7987 25.9006L44.8647 25.8955L44.9205 25.9209L44.9713 25.9565L45.022 26.0072L45.0626 26.063L45.1134 26.1138L45.1743 26.1189L45.3012 26.1036L45.4433 26.129L45.5093 26.1595L45.5702 26.2052L45.621 26.2356L45.7326 26.2508L45.7783 26.2915L45.8545 26.4133L45.9001 26.4488L45.9306 26.3727L45.9255 26.2915L45.9103 26.2204L45.9154 26.1646L45.9763 26.129L46.0473 26.1392L46.0829 26.1849L46.1184 26.3321L46.1438 26.3879L46.1844 26.4285L46.225 26.4234L46.2554 26.3473L46.3265 26.2559L46.5295 26.4285L46.5955 26.3727L46.6107 26.2356L46.5854 25.5605L46.6057 25.5098L46.6463 25.5199L46.7884 25.6519L46.9153 25.7077L47.0168 25.6874L47.098 25.6011L47.1945 25.388L47.2351 25.256L47.2503 25.1799L47.2401 25.1088L47.1538 24.9971L47.1234 24.9311L47.1843 24.784L47.2198 24.7383L47.2858 24.7129L47.3518 24.723L47.3873 24.7738L47.4026 24.8499V24.9311L47.3467 25.1545L47.3518 25.2002L47.3772 25.2103L47.3975 25.1799L47.4076 25.1393L47.4229 25.1139L47.4533 25.1291L47.4685 25.19L47.499 25.2052L47.5193 25.1849L47.5244 25.0986L47.5447 25.0834L47.565 25.0936L47.5904 25.1139L47.8695 25.5301L47.9152 25.6468L47.9304 25.7788L47.9254 25.9412L47.9406 26.1087L48.0167 26.1443L48.2502 26.1036L48.3213 26.1646L48.367 26.2305L48.4177 26.2559L48.504 26.2052L48.57 26.1443L48.641 26.1036L48.7121 26.0884L48.7882 26.1341L48.8187 26.2102L48.8339 26.3168L48.839 26.4285L48.8644 26.6315V26.7077L48.8441 26.7787L48.8035 26.8752L48.8948 26.8447V26.8447ZM44.3165 27.0579L44.281 26.9615L44.2404 26.8955L44.1693 26.8346L44.0881 26.799L44.0424 26.8092L44.0729 26.8904L44.1287 26.9462L44.215 27.063L44.2657 27.1086L44.3216 27.1239L44.3165 27.0579V27.0579Z" stroke="white" stroke-linecap="round" stroke-linejoin="round"/>
<path d="M37.3069 28.1846L37.2967 28.342L37.2612 28.3826L37.0988 28.413L37.0582 28.4181L37.0429 28.4283L37.0277 28.4384L37.0226 28.4587L37.0176 28.5501L36.9973 28.6973L37.0074 28.7176L37.0226 28.7328L37.0683 28.7226L37.1241 28.7074H37.1495L37.1597 28.7531L36.8094 29.5551L36.7993 29.6109L36.7891 29.6718L36.8044 29.7784L36.8145 29.8089L36.8298 29.8393L36.845 29.8495L36.9262 29.8647L37.5962 29.8799L38.4794 29.6617H38.4895L38.4946 29.6667L38.4794 29.6972L38.4641 29.7175L38.454 29.7378L38.4388 29.7632L38.3982 29.9104L38.388 29.9358L38.3779 29.9713L38.4134 30.0373V30.0423L38.2966 30.0728L38.2357 30.1185L38.3119 30.1997L38.4438 30.286L38.5454 30.3266L38.5758 30.3215L38.4489 30.489L38.4032 30.5702L38.388 30.6108V30.6413V30.6667L38.3931 30.687L38.4032 30.7225L38.4235 30.7631L38.4438 30.8342L38.454 30.8697L38.4591 30.89V30.9255L38.454 31.0524L38.4438 31.0727H38.4286L38.4235 31.0575L38.4083 31.0423L38.3931 31.0372L38.3779 31.0321L38.3525 31.0473L38.3474 31.0626L38.3576 31.0778L38.3677 31.093L38.4235 31.1235L38.4388 31.1387L38.4438 31.1539L38.4388 31.1742L38.4337 31.1996L38.4185 31.2351L38.4134 31.2961L38.4083 31.3316H38.3982L38.3677 31.3265L38.3373 31.4128L38.3068 32.032L38.2916 32.1234L38.251 32.1995L38.1799 32.2706L38.053 32.3518L38.0124 32.4076L38.0479 32.4838L37.987 32.5092L37.8043 32.5599L37.6622 32.5701L37.515 32.5599L37.2764 32.4736L36.8348 32.4635L35.8248 32.1995L35.6877 32.1945L35.576 32.23L35.3019 32.4279L35.0685 32.4635L35.0076 32.5244L35.0279 32.6919L35.0177 32.7071L35.0076 32.7173L34.9923 32.7223L34.9771 32.7274L34.901 32.7173L34.8553 32.7223L34.6319 32.5244L34.5101 32.4178L34.4695 32.367L34.4391 32.3011L34.4441 32.0371L34.4543 32.0067L34.4746 31.9711L34.5101 31.961H34.6015L34.6269 31.9559L34.6523 31.9458L34.6675 31.9254L34.6726 31.9051V31.8595V31.8341L34.6675 31.7986L34.6624 31.7783L34.6573 31.7529V31.7173V31.6615L34.6675 31.6361L34.6726 31.6158L34.6929 31.5955L34.7385 31.56L34.835 31.5092L34.8959 31.4889L34.9771 31.4686H34.9974L35.0431 31.4585L35.0532 31.428L34.9771 31.0676L34.9263 30.9864L34.4137 30.89L34.3477 30.8849L34.3173 30.8951L34.2919 30.89L34.2716 30.8798L34.2208 30.8494H34.2005L34.1802 30.8545L34.1345 30.8595L34.099 30.8545L33.8655 30.7885L33.83 30.7326L33.8198 30.7377H33.8046L33.764 30.7529L33.6625 30.6413L33.6574 30.621V30.5854L33.6676 30.5601L33.6625 30.5093L33.6473 30.4839L33.6269 30.4687H33.6066H33.5863L33.5711 30.4738L33.5153 30.4992L33.5001 30.5042L33.4747 30.5093H33.4493L33.4138 30.4992L33.4036 30.4839L33.3935 30.4636L33.3782 30.2911L33.3833 30.2708L33.3884 30.2504L33.4036 30.2403L33.4594 30.2251L33.4747 30.2098L33.4848 30.1997L33.495 30.1642L33.5001 30.0728L33.4188 29.9764L33.4087 29.9459V29.9154L33.4188 29.8951V29.8647L33.4087 29.8495L33.3935 29.8342L33.3326 29.8089L33.3122 29.7886L33.3021 29.7683L33.2919 29.753L33.2513 29.55L33.2463 29.484L33.2412 29.3013V29.2759L33.2463 29.2505L33.2513 29.2302L33.2767 29.1693L33.2919 29.1135L33.297 29.0627L33.2919 29.0221L33.2767 28.9866L33.2564 28.9358L33.2412 28.9155L33.226 28.9003L33.2057 28.9054L33.1295 28.9206L33.0635 28.9257L33.0128 28.9155L32.9671 28.9054L32.8453 28.8698L32.4747 28.8546L32.4494 28.8343L32.9011 27.9562L32.9823 27.7481L32.9163 27.6314L32.891 27.5654L32.8859 27.5451V27.4791L32.896 27.408V27.3725V27.342L32.8859 27.3268L32.8757 27.3116L32.8605 27.2964L32.5966 27.2253L32.556 27.1999L32.5357 27.1898L32.5103 27.1593L32.4951 27.1238L32.4849 27.1086L32.4798 27.0883L32.4341 26.5401L32.4697 26.4944L32.4951 26.4335L32.8554 26.2863V26.2711L33.0229 26.3167L33.3681 26.2964L33.6574 26.2761L34.3985 26.2304L34.7791 26.2101L35.3984 26.1695L35.774 26.1492L35.8451 26.1695L35.9669 26.2355L36.0329 26.2558L36.0887 26.2457L36.175 26.1898L36.2613 26.134L36.3323 26.0833L36.3526 26.1442L36.3679 26.1949L36.378 26.2051L36.3983 26.2457L36.4643 26.332L36.5303 26.4183L36.5607 26.4893L36.5709 26.5654L36.581 26.6365L36.6013 26.672L36.6216 26.7025L36.6572 26.672L36.6927 26.6568L36.7282 26.6619L36.7638 26.7025L36.8044 26.6162L36.8653 26.6111L36.8754 26.6923V26.7025L36.8704 26.738L36.9008 26.7482L36.9059 26.7533L36.8399 26.804L36.8145 26.8192L36.8399 26.8294L36.8501 26.8497L36.8754 26.8954V27.007L36.8602 27.073L36.845 27.139L36.8247 27.1999L36.8044 27.2659L36.7587 27.3674L36.7232 27.4182L36.6826 27.4689L36.6318 27.5045L36.5303 27.5552L36.4998 27.5755L36.4948 27.606L36.51 27.6212L36.6267 27.6466L36.7181 27.6973L36.9871 27.9664L37.0886 28.0425L37.1851 28.1237L37.3069 28.1846V28.1846Z" stroke="white" stroke-linecap="round" stroke-linejoin="round"/>
<path d="M38.4083 31.3316L38.4134 31.2961L38.4185 31.2352L38.4337 31.1997L38.4388 31.1743L38.4439 31.154L38.4388 31.1388L38.4235 31.1235L38.3677 31.0931L38.3576 31.0779L38.3474 31.0626L38.3525 31.0474L38.3779 31.0322L38.3931 31.0373L38.4083 31.0423L38.4235 31.0576L38.4286 31.0728H38.4439L38.454 31.0525L38.4591 30.9256V30.8901L38.454 30.8698L38.4439 30.8342L38.4235 30.7632L38.4032 30.7226L38.3931 30.687L38.388 30.6667V30.6413V30.6109L38.4032 30.5703L38.4489 30.4891L38.5758 30.3216L39.2661 30.1845L39.4032 30.281L39.4235 30.3368L39.4285 30.3977V30.4535L39.4032 30.4992L39.3372 30.5094L39.1189 30.4789L39.0631 30.4941L38.9565 30.5855L38.9159 30.6007L38.8499 30.4789L38.8042 30.4434L38.7687 30.5145L38.7738 30.55L38.8245 30.5906L38.8347 30.621L38.8296 30.6972L38.8347 30.7327L38.8499 30.7733L39.1088 31.1337L39.1189 31.22L38.992 31.2707L38.9261 31.1641L38.8804 31.0017L38.8195 30.8698L38.7586 30.8241L38.7382 30.8545L38.7484 30.9256L38.7789 31.0119L38.8448 31.1489L38.8398 31.2048L38.8042 31.2809L38.7941 31.286L38.7636 31.291L38.7535 31.2961L38.7332 31.357V31.3824L38.7281 31.4179L38.7078 31.4433L38.6672 31.423L38.591 31.2961L38.5403 31.2555L38.4388 31.3469L38.4083 31.3316V31.3316ZM39.6874 29.9155L39.591 29.8648L39.525 29.8546L39.0479 29.9307L38.987 29.9561L38.8854 30.012L38.8144 30.0221L38.6469 29.9917L38.5809 29.9967L38.4134 30.0424V30.0373L38.3779 29.9713L38.388 29.9358L38.3982 29.9104L38.4388 29.7632L38.454 29.7379L38.4642 29.7176L38.4794 29.6973L38.4946 29.6668L38.4895 29.6617H38.4794L37.5962 29.88L36.9262 29.8648L36.845 29.8495L36.8298 29.8394L36.8145 29.8089L36.8044 29.7785L36.7892 29.6719L36.7993 29.611L36.8095 29.5551L37.1597 28.7532L37.1495 28.7075H37.1242L37.0683 28.7227L37.0226 28.7329L37.0074 28.7176L36.9973 28.6973L37.0176 28.5501L37.0226 28.4588L37.0277 28.4385L37.0429 28.4283L37.0582 28.4182L37.0988 28.4131L37.2612 28.3826L37.2967 28.342L37.3069 28.1847L37.5353 28.3065L37.8804 28.4892L37.8906 28.4689L37.9261 28.4334H37.9718L37.9921 28.408L38.0124 28.3725L38.0378 28.3573L38.0733 28.3623L38.1901 28.4182L38.2662 28.4334L38.3322 28.3928L38.3474 28.342L38.2916 28.3116L38.3626 28.1948L38.3677 28.1695L38.3423 28.1238L38.3271 28.0781L38.3119 28.0273L38.317 27.9766L38.2408 27.9613L38.2154 27.9461L38.1901 27.9157L38.1698 27.8395L38.1545 27.6771L38.1393 27.5147L38.1444 27.4842L38.1495 27.4538L38.1698 27.4335L38.185 27.4182L38.2053 27.3776L38.2104 27.337L38.2002 27.2507L38.2053 27.2101L38.2154 27.2152L38.2459 27.2254L38.256 27.2355L38.2916 27.1441L38.3728 27.0883L38.4337 27.0579L38.586 27.1949L38.6063 27.2304L38.6164 27.271L38.6215 27.3624L38.6317 27.3929L38.6469 27.403L38.6723 27.3827H38.6824L38.6926 27.4081L38.7027 27.4741L38.7484 27.4538L38.8144 27.469L38.8804 27.4944L38.9261 27.5299L38.9514 27.5654L38.9819 27.6314L39.0073 27.6568L39.0276 27.672L39.1037 27.7126L39.1392 27.738L39.1545 27.7583L39.1849 27.8243V27.8395L39.1798 27.8852L39.1849 27.9055L39.2052 27.9207L39.2255 27.9258L39.2458 27.9207L39.2661 27.9258L39.3067 27.9664L39.3372 28.0121L39.3473 28.0629L39.3067 28.1136L39.3524 28.1441L39.393 28.1288L39.4336 28.1035L39.4793 28.0882L39.5098 28.1035L39.4945 28.1441L39.4489 28.2202L39.5757 28.1999L39.6265 28.205L39.662 28.3014L39.7179 28.3471L39.7331 28.3826L39.7179 28.4131L39.6722 28.4588V28.4892L39.6925 28.5045L39.7229 28.4841L39.7534 28.4486L39.7839 28.4334L39.8092 28.4486L39.8295 28.474V28.4994L39.7534 28.5349L39.728 28.5907L39.6925 28.7278L39.728 28.7227L39.7585 28.7278L39.7889 28.7379L39.8143 28.7582L39.7585 28.7887L39.7636 28.8191L39.794 28.8496L39.8143 28.875L39.8194 28.9054L39.8295 28.941L39.8346 28.9765L39.8245 29.007L39.7788 29.0628L39.7636 29.0932L39.7483 29.1288L39.7382 29.1592L39.6773 29.5145L39.7179 29.6211L39.7382 29.6516L39.7432 29.7074L39.7026 29.8597L39.6874 29.9155V29.9155Z" stroke="white" stroke-linecap="round" stroke-linejoin="round"/>
<path d="M43.8089 25.2813L43.7734 25.3777L43.748 25.4234L43.6008 25.6163L43.5958 25.6417L43.5907 25.667L43.5958 25.7127L43.6008 25.7736L43.611 25.7939L43.6211 25.8092L43.7024 25.8193L43.7125 25.8548L43.6973 25.9056L43.6871 25.931L43.6313 26.0528L43.6262 26.0731V26.1035L43.6364 26.1289L43.6516 26.1594L43.7125 26.2406L43.7734 26.3421L43.7836 26.4284L43.7937 26.7177L43.7683 26.8091L43.7328 26.7685L43.6008 26.7126L43.4892 26.7431L43.408 27.1542L43.2455 27.3471L43.0324 27.4791L42.7278 27.6009L42.4486 27.8141L41.9055 27.9867L41.8395 28.0171L41.7786 28.0679L41.6568 28.2252L41.5858 28.2861L41.5096 28.3115L41.4183 28.281L41.3777 28.2455L41.3472 28.2049L41.2964 28.1136L41.2609 28.0729L41.1899 28.0222L41.1543 27.9917L41.0376 27.8141L40.9716 27.7481L40.8752 27.7379L40.8295 27.7126L40.7939 27.672L40.7533 27.6415L40.7026 27.6364L40.6061 27.6669L40.5605 27.6923L40.5148 27.7278L40.4437 27.8242L40.398 27.9257L40.3777 28.0425L40.3727 28.1846L40.393 28.3927L40.3828 28.4435L40.3371 28.4689L40.1595 28.4841L40.0529 28.5602V28.6414L40.1696 28.8394H40.1747L40.2356 29.0576L40.2661 29.1287L40.3422 29.2657L40.3727 29.3419L40.393 29.4282L40.3676 29.616L40.2762 29.6312L40.1595 29.5906L40.0833 29.6007L40.0986 29.7124L40.3117 29.9053V29.9967L40.2001 30.0474L40.0529 30.0423L39.7889 29.9662L39.6874 29.9154L39.7027 29.8596L39.7433 29.7073L39.7382 29.6515L39.7179 29.621L39.6773 29.5145L39.7382 29.1592L39.7483 29.1287L39.7636 29.0932L39.7788 29.0627L39.8245 29.0069L39.8346 28.9764L39.8295 28.9409L39.8194 28.9054L39.8143 28.8749L39.794 28.8495L39.7636 28.8191L39.7585 28.7886L39.8143 28.7582L39.7889 28.7379L39.7585 28.7277L39.728 28.7226L39.6925 28.7277L39.728 28.5907L39.7534 28.5348L39.8295 28.4993V28.4739L39.8092 28.4485L39.7839 28.4333L39.7534 28.4485L39.723 28.4841L39.6925 28.5044L39.6722 28.4892V28.4587L39.7179 28.413L39.7331 28.3826L39.7179 28.347L39.6621 28.3014L39.6265 28.2049L39.5758 28.1998L39.4489 28.2201L39.4946 28.144L39.5098 28.1034L39.4793 28.0882L39.4336 28.1034L39.393 28.1288L39.3524 28.144L39.3067 28.1136L39.3474 28.0628L39.3372 28.012L39.3067 27.9664L39.2661 27.9257L39.2458 27.9207L39.2255 27.9257L39.2052 27.9207L39.1849 27.9054L39.1799 27.8851L39.1849 27.8395V27.8242L39.1545 27.7582L39.1392 27.7379L39.1037 27.7126L39.0276 27.672L39.0073 27.6567L38.9819 27.6314L38.9514 27.5654L38.9261 27.5298L38.8804 27.4943L38.8144 27.4689L38.7484 27.4537L38.7027 27.474L38.6926 27.408L38.6824 27.3826H38.6723L38.6469 27.4029L38.6317 27.3928L38.6215 27.3623L38.6164 27.271L38.6063 27.2304L38.586 27.1948L38.4337 27.0578L38.5505 27.007L38.6114 26.936L38.6672 26.7786L38.723 26.6213L38.7586 26.5756L38.8042 26.5299L38.9058 26.4842L39.0022 26.4385L39.0783 26.3117L39.0986 26.2863L39.1139 26.2609L39.1748 26.2406L39.3017 26.2254L39.3575 26.2L39.4083 26.1746L39.459 26.1391L39.5098 26.1035L39.5605 26.0528L39.5859 26.0071L39.6062 25.8193L39.6316 25.6366L39.6265 25.5706L39.6214 25.5249L39.6113 25.5097L39.5961 25.4995L39.5707 25.464L39.5605 25.4335L39.5758 25.4031L39.6011 25.3828L39.7382 25.3168L39.794 25.3016L39.8448 25.3219L39.8752 25.2407L39.9514 25.1696L40.0275 25.1189L40.1087 25.0681L40.1595 25.0529L40.2458 25.0884L40.2864 25.0833L40.4031 25.0072L40.4437 24.997L40.5351 25.0123L40.6214 25.0275L40.6569 25.0072L40.6518 24.9666L40.6011 24.8752L40.5909 24.8346L40.6112 24.7839L40.6315 24.7331L40.7077 24.6722L40.8752 24.6214L41.0274 24.4996L41.1746 24.3829L41.2203 24.3321L41.2609 24.2864L41.3117 24.2458L41.5096 24.19L41.7076 24.1342L41.8751 24.1291L42.0375 24.1189L42.1593 24.0682L42.2507 23.9616L42.2913 23.9007L42.337 23.8651L42.4182 23.8347L42.4994 23.8042L42.7481 23.6215L42.7836 23.5758L42.8192 23.5352L42.9207 23.3576L43.0222 23.185L43.0628 23.1393L43.1136 23.1139L43.1694 23.0936L43.2151 23.0682L43.2557 23.0276L43.2658 22.9921L43.276 22.9566L43.347 22.7942L43.413 22.7383L43.4739 22.6825L43.7633 22.5607L43.8039 22.5657L43.8597 22.6064L43.9054 22.6571L43.9308 22.7129L43.9511 22.784L43.9967 22.8297L44.0577 22.8551L44.1287 22.8652L44.1744 22.8449L44.2201 22.8246L44.281 22.7079L44.3114 22.6317L44.3368 22.5607L44.4028 22.4287L44.4485 22.383L44.4891 22.3323L44.5196 22.2764L44.5449 22.2054L44.5855 22.1445H44.6566L44.7936 22.18L44.9053 22.1648L44.9611 22.1394L45.017 22.1089L45.2149 21.9465L45.2809 21.8856L45.4078 21.7841L45.5042 21.7739L45.5956 21.8145L46.0118 22.1089L46.1133 22.1445L46.0727 22.2967L45.9611 22.3729L45.7174 22.4439L45.3012 22.7535L45.1794 22.784L45.0322 22.7789L44.9155 22.8094L44.8596 22.9566L44.8546 23.185L44.819 23.251L44.7175 23.2916L44.4231 23.322L44.3317 23.3779L44.0424 23.6266L43.9155 23.7789L43.8292 23.9667L43.7582 24.0732L43.6668 24.1291L43.5704 24.1798L43.3978 24.3169L42.9207 24.6011L42.8547 24.7026L42.9105 24.8295L43.0171 24.8854L43.4333 24.931L43.4384 24.9361L43.545 25.0021L43.5958 25.0478L43.6414 25.1036L43.7125 25.2407L43.7582 25.2813H43.8089V25.2813ZM40.5402 25.7026L40.5097 25.667L40.5351 25.6315L40.5046 25.5858L40.464 25.5604L40.5097 25.4843L40.4945 25.4183L40.3879 25.3473L40.2965 25.3371L40.2255 25.2864L40.129 25.2914L39.9717 25.4488L39.9463 25.5706L39.8702 25.7635L39.8803 25.7685L39.9311 25.7432L39.9361 25.7889L39.9564 25.8345L40.0275 25.9157L40.0783 25.8701V25.8853L40.063 25.9208L40.0986 25.9868L40.1849 26.0122L40.2813 25.8954L40.4285 25.7584L40.5402 25.7026V25.7026Z" stroke="white" stroke-linecap="round" stroke-linejoin="round"/>
<path d="M40.5401 25.7026L40.4285 25.7584L40.2813 25.8955L40.1848 26.0122L40.0986 25.9868L40.063 25.9208L40.0783 25.8853V25.8701L40.0275 25.9158L39.9564 25.8346L39.9361 25.7889L39.9311 25.7432L39.8803 25.7686L39.8701 25.7635L39.9463 25.5706L39.9717 25.4488L40.129 25.2915L40.2254 25.2864L40.2965 25.3371L40.3879 25.3473L40.4945 25.4183L40.5097 25.4843L40.464 25.5605L40.5046 25.5858L40.5351 25.6315L40.5097 25.6671L40.5401 25.7026V25.7026Z" stroke="white" stroke-linecap="round" stroke-linejoin="round"/>
</svg>
