<svg width="32" height="33" viewBox="0 0 32 33" fill="none" xmlns="http://www.w3.org/2000/svg">
<g clip-path="url(#clip0)">
<path d="M17 17.8027V0.865234H0V32.8652H17V23.4277H30.125V32.8652H32V17.8027H17ZM26.375 19.6777V21.5527H20.75V19.6777H26.375ZM15.125 2.74023V8.36523H1.875V2.74023H15.125ZM5.625 19.7402H11.3125V21.6152H5.625V19.7402ZM11.3125 17.8652H5.625V10.2402H11.3125V17.8652ZM1.875 30.9902V10.2402H3.75V23.4902H13.1875V10.2402H15.125V30.9902H1.875ZM17 19.6777H18.875V21.5527H17V19.6777ZM28.25 21.5527V19.6777H30.125V21.5527H28.25Z" fill="#21BF86"/>
<path d="M4.6875 4.61523H12.8438V6.49023H4.6875V4.61523Z" fill="#21BF86"/>
</g>
<defs>
<clipPath id="clip0">
<rect width="32" height="32" fill="white" transform="translate(0 0.865234)"/>
</clipPath>
</defs>
</svg>
